<svg width="686" height="364" viewBox="0 0 686 364" fill="none" xmlns="http://www.w3.org/2000/svg">
<mask id="path-1-inside-1_19_1593" fill="white">
<path d="M116 148C116 144.686 118.686 142 122 142H642C645.314 142 648 144.686 648 148V227C648 230.314 645.314 233 642 233H122C118.686 233 116 230.314 116 227V148Z"/>
</mask>
<path d="M116 148C116 144.686 118.686 142 122 142H642C645.314 142 648 144.686 648 148V227C648 230.314 645.314 233 642 233H122C118.686 233 116 230.314 116 227V148Z" fill="#0C0C0C"/>
<path d="M115.5 148C115.5 144.41 118.41 141.5 122 141.5H642C645.59 141.5 648.5 144.41 648.5 148H647.5C647.5 144.962 645.038 142.5 642 142.5H122C118.962 142.5 116.5 144.962 116.5 148H115.5ZM648.5 228.5C648.5 232.09 645.59 235 642 235H122C118.41 235 115.5 232.09 115.5 228.5L116.5 227C116.5 229.209 118.962 231 122 231H642C645.038 231 647.5 229.209 647.5 227L648.5 228.5ZM122 235C118.41 235 115.5 232.09 115.5 228.5V148C115.5 144.41 118.41 141.5 122 141.5V142.5C118.962 142.5 116.5 144.962 116.5 148V227C116.5 229.209 118.962 231 122 231V235ZM642 141.5C645.59 141.5 648.5 144.41 648.5 148V228.5C648.5 232.09 645.59 235 642 235V231C645.038 231 647.5 229.209 647.5 227V148C647.5 144.962 645.038 142.5 642 142.5V141.5Z" fill="#303030" mask="url(#path-1-inside-1_19_1593)"/>
<path d="M133 154.5V155.75H131.5V154.5H133ZM130.5 153.667V156.583H134V153.667H130.5ZM135.5 153.667H139.5V154.5H135.5V153.667ZM135.5 156.583H139.5V157.417H135.5V156.583ZM135.5 159.5H139.5V160.333H135.5V159.5ZM134.353 158.753L133.646 158.164L132 159.536L131.103 158.789L130.396 159.378L132 160.714L134.353 158.753Z" fill="#B0B0B0"/>
<path d="M146.705 154.182H147.545L149.523 159.011H149.591L151.568 154.182H152.409V160H151.75V155.58H151.693L149.875 160H149.239L147.42 155.58H147.364V160H146.705V154.182ZM156.481 158.216V155.636H157.151V160H156.481V159.261H156.435C156.333 159.483 156.174 159.671 155.958 159.827C155.742 159.98 155.469 160.057 155.14 160.057C154.867 160.057 154.625 159.997 154.413 159.878C154.201 159.757 154.034 159.575 153.913 159.332C153.791 159.088 153.731 158.78 153.731 158.409V155.636H154.401V158.364C154.401 158.682 154.49 158.936 154.668 159.125C154.848 159.314 155.077 159.409 155.356 159.409C155.522 159.409 155.692 159.366 155.864 159.281C156.039 159.196 156.184 159.065 156.302 158.889C156.421 158.713 156.481 158.489 156.481 158.216ZM159.05 154.182V160H158.379V154.182H159.05ZM162.175 155.636V156.205H159.914V155.636H162.175ZM160.573 154.591H161.244V158.75C161.244 158.939 161.271 159.081 161.326 159.176C161.383 159.269 161.455 159.331 161.542 159.364C161.631 159.394 161.725 159.409 161.823 159.409C161.897 159.409 161.958 159.405 162.005 159.398C162.052 159.388 162.09 159.381 162.119 159.375L162.255 159.977C162.21 159.994 162.146 160.011 162.065 160.028C161.983 160.047 161.88 160.057 161.755 160.057C161.566 160.057 161.38 160.016 161.198 159.935C161.018 159.853 160.869 159.729 160.749 159.562C160.632 159.396 160.573 159.186 160.573 158.932V154.591ZM163.184 160V155.636H163.854V160H163.184ZM163.525 154.909C163.394 154.909 163.281 154.865 163.187 154.776C163.094 154.687 163.048 154.58 163.048 154.455C163.048 154.33 163.094 154.223 163.187 154.134C163.281 154.045 163.394 154 163.525 154C163.656 154 163.767 154.045 163.86 154.134C163.955 154.223 164.002 154.33 164.002 154.455C164.002 154.58 163.955 154.687 163.86 154.776C163.767 154.865 163.656 154.909 163.525 154.909ZM165.082 161.636V155.636H165.73V156.33H165.81C165.859 156.254 165.927 156.157 166.014 156.04C166.103 155.92 166.23 155.814 166.395 155.722C166.562 155.627 166.787 155.58 167.071 155.58C167.438 155.58 167.762 155.671 168.043 155.855C168.323 156.039 168.542 156.299 168.699 156.636C168.856 156.973 168.935 157.371 168.935 157.83C168.935 158.292 168.856 158.692 168.699 159.031C168.542 159.368 168.324 159.63 168.045 159.815C167.767 159.999 167.446 160.091 167.082 160.091C166.802 160.091 166.578 160.045 166.409 159.952C166.241 159.857 166.111 159.75 166.02 159.631C165.929 159.509 165.859 159.409 165.81 159.33H165.753V161.636H165.082ZM165.741 157.818C165.741 158.148 165.79 158.438 165.886 158.69C165.983 158.94 166.124 159.136 166.31 159.278C166.495 159.419 166.723 159.489 166.991 159.489C167.272 159.489 167.506 159.415 167.693 159.267C167.883 159.117 168.025 158.917 168.119 158.665C168.216 158.411 168.264 158.129 168.264 157.818C168.264 157.511 168.217 157.235 168.122 156.989C168.029 156.741 167.888 156.545 167.699 156.401C167.511 156.255 167.276 156.182 166.991 156.182C166.719 156.182 166.49 156.251 166.304 156.389C166.118 156.526 165.978 156.717 165.884 156.963C165.789 157.207 165.741 157.492 165.741 157.818ZM170.628 154.182V160H169.957V154.182H170.628ZM173.685 160.091C173.265 160.091 172.902 159.998 172.597 159.812C172.294 159.625 172.06 159.364 171.896 159.028C171.733 158.691 171.651 158.299 171.651 157.852C171.651 157.405 171.733 157.011 171.896 156.67C172.06 156.328 172.29 156.061 172.583 155.869C172.879 155.676 173.223 155.58 173.617 155.58C173.844 155.58 174.069 155.617 174.29 155.693C174.512 155.769 174.714 155.892 174.896 156.062C175.077 156.231 175.222 156.455 175.33 156.733C175.438 157.011 175.492 157.354 175.492 157.761V158.045H172.129V157.466H174.81C174.81 157.22 174.761 157 174.663 156.807C174.566 156.614 174.428 156.461 174.248 156.349C174.07 156.238 173.86 156.182 173.617 156.182C173.35 156.182 173.119 156.248 172.924 156.381C172.731 156.511 172.582 156.682 172.478 156.892C172.374 157.102 172.322 157.328 172.322 157.568V157.955C172.322 158.284 172.379 158.563 172.492 158.793C172.608 159.02 172.768 159.193 172.972 159.312C173.177 159.43 173.415 159.489 173.685 159.489C173.862 159.489 174.021 159.464 174.163 159.415C174.307 159.364 174.431 159.288 174.535 159.188C174.639 159.085 174.719 158.958 174.776 158.807L175.424 158.989C175.356 159.208 175.241 159.402 175.08 159.568C174.919 159.733 174.72 159.862 174.484 159.955C174.247 160.045 173.981 160.091 173.685 160.091ZM183.535 156H182.83C182.789 155.797 182.716 155.619 182.612 155.466C182.509 155.312 182.384 155.184 182.237 155.08C182.091 154.973 181.929 154.894 181.751 154.841C181.573 154.788 181.387 154.761 181.194 154.761C180.842 154.761 180.522 154.85 180.237 155.028C179.952 155.206 179.726 155.469 179.558 155.815C179.391 156.162 179.308 156.587 179.308 157.091C179.308 157.595 179.391 158.02 179.558 158.366C179.726 158.713 179.952 158.975 180.237 159.153C180.522 159.331 180.842 159.42 181.194 159.42C181.387 159.42 181.573 159.394 181.751 159.341C181.929 159.288 182.091 159.209 182.237 159.105C182.384 158.999 182.509 158.869 182.612 158.716C182.716 158.561 182.789 158.383 182.83 158.182H183.535C183.482 158.479 183.385 158.745 183.245 158.98C183.105 159.215 182.931 159.415 182.722 159.58C182.514 159.742 182.28 159.866 182.021 159.952C181.763 160.037 181.487 160.08 181.194 160.08C180.698 160.08 180.256 159.958 179.87 159.716C179.484 159.473 179.18 159.129 178.958 158.682C178.737 158.235 178.626 157.705 178.626 157.091C178.626 156.477 178.737 155.947 178.958 155.5C179.18 155.053 179.484 154.708 179.87 154.466C180.256 154.223 180.698 154.102 181.194 154.102C181.487 154.102 181.763 154.145 182.021 154.23C182.28 154.315 182.514 154.44 182.722 154.605C182.931 154.768 183.105 154.967 183.245 155.202C183.385 155.435 183.482 155.701 183.535 156ZM185.253 157.375V160H184.582V154.182H185.253V156.318H185.31C185.412 156.093 185.565 155.914 185.77 155.781C185.976 155.647 186.251 155.58 186.594 155.58C186.891 155.58 187.152 155.639 187.375 155.759C187.598 155.876 187.772 156.057 187.895 156.301C188.02 156.544 188.082 156.852 188.082 157.227V160H187.412V157.273C187.412 156.926 187.322 156.658 187.142 156.469C186.964 156.277 186.717 156.182 186.401 156.182C186.181 156.182 185.984 156.228 185.81 156.321C185.637 156.414 185.501 156.549 185.401 156.727C185.302 156.905 185.253 157.121 185.253 157.375ZM191.082 160.091C190.688 160.091 190.342 159.997 190.045 159.81C189.749 159.622 189.518 159.36 189.352 159.023C189.187 158.686 189.104 158.292 189.104 157.841C189.104 157.386 189.187 156.99 189.352 156.651C189.518 156.312 189.749 156.048 190.045 155.861C190.342 155.673 190.688 155.58 191.082 155.58C191.476 155.58 191.82 155.673 192.116 155.861C192.413 156.048 192.644 156.312 192.809 156.651C192.976 156.99 193.059 157.386 193.059 157.841C193.059 158.292 192.976 158.686 192.809 159.023C192.644 159.36 192.413 159.622 192.116 159.81C191.82 159.997 191.476 160.091 191.082 160.091ZM191.082 159.489C191.381 159.489 191.627 159.412 191.82 159.259C192.013 159.105 192.156 158.903 192.249 158.653C192.342 158.403 192.388 158.133 192.388 157.841C192.388 157.549 192.342 157.277 192.249 157.026C192.156 156.774 192.013 156.57 191.82 156.415C191.627 156.259 191.381 156.182 191.082 156.182C190.782 156.182 190.536 156.259 190.343 156.415C190.15 156.57 190.007 156.774 189.914 157.026C189.821 157.277 189.775 157.549 189.775 157.841C189.775 158.133 189.821 158.403 189.914 158.653C190.007 158.903 190.15 159.105 190.343 159.259C190.536 159.412 190.782 159.489 191.082 159.489ZM194.082 160V155.636H194.753V160H194.082ZM194.423 154.909C194.293 154.909 194.18 154.865 194.085 154.776C193.992 154.687 193.946 154.58 193.946 154.455C193.946 154.33 193.992 154.223 194.085 154.134C194.18 154.045 194.293 154 194.423 154C194.554 154 194.666 154.045 194.759 154.134C194.853 154.223 194.901 154.33 194.901 154.455C194.901 154.58 194.853 154.687 194.759 154.776C194.666 154.865 194.554 154.909 194.423 154.909ZM197.754 160.091C197.344 160.091 196.992 159.994 196.697 159.801C196.401 159.608 196.174 159.342 196.015 159.003C195.856 158.664 195.776 158.277 195.776 157.841C195.776 157.398 195.858 157.007 196.021 156.668C196.185 156.327 196.415 156.061 196.708 155.869C197.004 155.676 197.348 155.58 197.742 155.58C198.049 155.58 198.326 155.636 198.572 155.75C198.818 155.864 199.02 156.023 199.177 156.227C199.334 156.432 199.432 156.67 199.469 156.943H198.799C198.748 156.744 198.634 156.568 198.458 156.415C198.284 156.259 198.049 156.182 197.754 156.182C197.492 156.182 197.263 156.25 197.066 156.386C196.871 156.521 196.719 156.711 196.609 156.957C196.501 157.202 196.447 157.489 196.447 157.818C196.447 158.155 196.5 158.449 196.606 158.699C196.714 158.949 196.865 159.143 197.06 159.281C197.257 159.42 197.488 159.489 197.754 159.489C197.928 159.489 198.086 159.458 198.228 159.398C198.37 159.337 198.49 159.25 198.589 159.136C198.687 159.023 198.757 158.886 198.799 158.727H199.469C199.432 158.985 199.338 159.217 199.188 159.423C199.04 159.628 198.844 159.791 198.6 159.912C198.358 160.031 198.076 160.091 197.754 160.091ZM202.279 160.091C201.859 160.091 201.496 159.998 201.191 159.812C200.888 159.625 200.654 159.364 200.489 159.028C200.326 158.691 200.245 158.299 200.245 157.852C200.245 157.405 200.326 157.011 200.489 156.67C200.654 156.328 200.883 156.061 201.177 155.869C201.472 155.676 201.817 155.58 202.211 155.58C202.438 155.58 202.663 155.617 202.884 155.693C203.106 155.769 203.308 155.892 203.489 156.062C203.671 156.231 203.816 156.455 203.924 156.733C204.032 157.011 204.086 157.354 204.086 157.761V158.045H200.722V157.466H203.404C203.404 157.22 203.355 157 203.256 156.807C203.16 156.614 203.022 156.461 202.842 156.349C202.664 156.238 202.453 156.182 202.211 156.182C201.944 156.182 201.713 156.248 201.518 156.381C201.325 156.511 201.176 156.682 201.072 156.892C200.968 157.102 200.915 157.328 200.915 157.568V157.955C200.915 158.284 200.972 158.563 201.086 158.793C201.201 159.02 201.362 159.193 201.566 159.312C201.771 159.43 202.008 159.489 202.279 159.489C202.455 159.489 202.614 159.464 202.756 159.415C202.9 159.364 203.024 159.288 203.129 159.188C203.233 159.085 203.313 158.958 203.37 158.807L204.018 158.989C203.95 159.208 203.835 159.402 203.674 159.568C203.513 159.733 203.314 159.862 203.077 159.955C202.841 160.045 202.575 160.091 202.279 160.091Z" fill="#B0B0B0"/>
<path d="M136.815 180.42L130.412 183.682V182.409L135.324 180.043L135.284 180.122V179.923L135.324 180.003L130.412 177.636V176.364L136.815 179.625V180.42ZM144.572 184V185.094H138.209V184H144.572ZM156.456 178H155.417C155.405 177.696 155.343 177.429 155.229 177.199C155.115 176.969 154.962 176.776 154.769 176.619C154.578 176.46 154.36 176.341 154.113 176.261C153.865 176.182 153.601 176.142 153.32 176.142C152.78 176.142 152.269 176.28 151.786 176.555C151.303 176.828 150.89 177.23 150.546 177.761C150.202 178.29 149.968 178.937 149.843 179.705C149.718 180.449 149.736 181.075 149.898 181.584C150.06 182.092 150.328 182.477 150.703 182.739C151.078 183 151.525 183.131 152.042 183.131C152.34 183.131 152.632 183.091 152.919 183.011C153.209 182.932 153.479 182.814 153.729 182.658C153.982 182.499 154.206 182.304 154.402 182.074C154.601 181.841 154.757 181.574 154.871 181.273H155.928C155.772 181.719 155.56 182.118 155.293 182.47C155.029 182.822 154.723 183.122 154.377 183.369C154.03 183.614 153.657 183.8 153.256 183.928C152.855 184.055 152.439 184.119 152.007 184.119C151.252 184.119 150.608 183.935 150.077 183.565C149.549 183.193 149.171 182.668 148.944 181.989C148.719 181.307 148.684 180.5 148.837 179.568C148.99 178.659 149.284 177.875 149.719 177.216C150.154 176.554 150.686 176.045 151.317 175.69C151.948 175.332 152.632 175.153 153.371 175.153C153.814 175.153 154.222 175.217 154.594 175.345C154.966 175.473 155.29 175.661 155.566 175.908C155.841 176.152 156.056 176.45 156.209 176.803C156.365 177.152 156.448 177.551 156.456 178ZM159.494 175.273L158.045 184H157.039L158.488 175.273H159.494ZM159.887 184L160.978 177.455H161.983L160.892 184H159.887ZM161.787 176.347C161.591 176.347 161.422 176.28 161.28 176.146C161.141 176.013 161.071 175.852 161.071 175.665C161.071 175.477 161.141 175.317 161.28 175.183C161.422 175.05 161.591 174.983 161.787 174.983C161.983 174.983 162.151 175.05 162.29 175.183C162.432 175.317 162.503 175.477 162.503 175.665C162.503 175.852 162.432 176.013 162.29 176.146C162.151 176.28 161.983 176.347 161.787 176.347ZM165.376 184.136C164.76 184.136 164.254 183.991 163.859 183.702C163.467 183.412 163.195 183.013 163.041 182.504C162.888 181.996 162.865 181.415 162.973 180.761C163.081 180.097 163.3 179.51 163.629 179.001C163.959 178.49 164.369 178.091 164.861 177.804C165.352 177.514 165.893 177.369 166.484 177.369C166.945 177.369 167.345 177.455 167.686 177.625C168.027 177.795 168.29 178.034 168.474 178.341C168.659 178.648 168.746 179.006 168.734 179.415H167.729C167.7 179.116 167.572 178.852 167.345 178.622C167.121 178.389 166.788 178.273 166.348 178.273C165.956 178.273 165.595 178.375 165.266 178.58C164.936 178.781 164.659 179.067 164.435 179.436C164.21 179.803 164.058 180.233 163.979 180.727C163.893 181.233 163.901 181.673 164 182.048C164.099 182.423 164.28 182.714 164.541 182.922C164.803 183.129 165.132 183.233 165.53 183.233C165.791 183.233 166.036 183.188 166.263 183.097C166.49 183.006 166.692 182.875 166.868 182.705C167.044 182.534 167.183 182.33 167.286 182.091H168.291C168.166 182.477 167.966 182.825 167.69 183.135C167.415 183.442 167.081 183.686 166.689 183.868C166.297 184.047 165.859 184.136 165.376 184.136ZM170.767 181.614L170.955 180.369H171.159L174.517 177.455H175.761L172.199 180.54H172.114L170.767 181.614ZM169.438 184L170.886 175.273H171.892L170.443 184H169.438ZM173.597 184L171.585 180.761L172.403 180.062L174.875 184H173.597ZM183.277 177.455L183.141 178.307H179.749L179.885 177.455H183.277ZM181.13 175.886H182.135L181.096 182.125C181.05 182.409 181.057 182.622 181.117 182.764C181.179 182.903 181.273 182.997 181.398 183.045C181.526 183.091 181.664 183.114 181.811 183.114C181.922 183.114 182.013 183.108 182.084 183.097C182.155 183.082 182.212 183.071 182.255 183.062L182.323 183.966C182.246 183.991 182.142 184.017 182.012 184.043C181.884 184.071 181.726 184.085 181.539 184.085C181.255 184.085 180.988 184.024 180.738 183.902C180.488 183.78 180.296 183.594 180.162 183.344C180.029 183.094 179.993 182.778 180.056 182.398L181.13 175.886ZM186.331 184.136C185.728 184.136 185.224 183.993 184.818 183.706C184.412 183.419 184.125 183.017 183.957 182.5C183.792 181.983 183.765 181.381 183.876 180.693C183.984 180.023 184.199 179.439 184.52 178.942C184.843 178.442 185.245 178.055 185.725 177.783C186.208 177.507 186.74 177.369 187.319 177.369C187.922 177.369 188.424 177.514 188.828 177.804C189.234 178.091 189.521 178.494 189.689 179.014C189.856 179.531 189.885 180.136 189.774 180.83C189.666 181.494 189.449 182.075 189.122 182.572C188.798 183.067 188.396 183.452 187.916 183.727C187.439 184 186.91 184.136 186.331 184.136ZM186.348 183.233C186.808 183.233 187.207 183.115 187.545 182.879C187.886 182.643 188.162 182.332 188.372 181.946C188.585 181.56 188.728 181.142 188.802 180.693C188.87 180.267 188.868 179.871 188.794 179.504C188.72 179.135 188.562 178.838 188.321 178.614C188.079 178.386 187.74 178.273 187.302 178.273C186.842 178.273 186.44 178.392 186.096 178.631C185.755 178.869 185.48 179.183 185.27 179.572C185.059 179.962 184.919 180.381 184.848 180.83C184.779 181.256 184.781 181.652 184.852 182.018C184.926 182.382 185.083 182.676 185.325 182.901C185.569 183.122 185.91 183.233 186.348 183.233ZM196.073 184.153C195.658 184.153 195.295 184.075 194.982 183.919C194.67 183.76 194.438 183.531 194.288 183.233C194.137 182.932 194.096 182.568 194.164 182.142C194.229 181.767 194.356 181.463 194.543 181.23C194.731 180.994 194.958 180.81 195.225 180.676C195.495 180.54 195.785 180.439 196.094 180.374C196.407 180.305 196.718 180.253 197.028 180.216C197.431 180.165 197.759 180.125 198.012 180.097C198.265 180.068 198.455 180.021 198.583 179.956C198.711 179.891 198.789 179.778 198.817 179.619V179.585C198.886 179.168 198.83 178.842 198.651 178.609C198.472 178.374 198.153 178.256 197.692 178.256C197.215 178.256 196.816 178.361 196.495 178.571C196.174 178.781 195.937 179.006 195.783 179.244L194.897 178.903C195.13 178.506 195.408 178.196 195.732 177.974C196.056 177.75 196.396 177.594 196.751 177.506C197.106 177.415 197.448 177.369 197.778 177.369C197.988 177.369 198.225 177.395 198.489 177.446C198.754 177.494 199.001 177.595 199.231 177.749C199.464 177.902 199.638 178.134 199.755 178.443C199.874 178.753 199.891 179.168 199.806 179.688L199.09 184H198.085L198.238 183.114H198.187C198.096 183.256 197.957 183.408 197.769 183.57C197.585 183.732 197.35 183.869 197.066 183.983C196.785 184.097 196.454 184.153 196.073 184.153ZM196.363 183.25C196.761 183.25 197.109 183.172 197.407 183.016C197.708 182.859 197.95 182.658 198.131 182.411C198.316 182.163 198.431 181.903 198.477 181.631L198.63 180.71C198.579 180.761 198.478 180.808 198.327 180.851C198.177 180.891 198.006 180.926 197.816 180.957C197.629 180.986 197.445 181.011 197.266 181.034C197.09 181.054 196.948 181.071 196.84 181.085C196.573 181.119 196.319 181.175 196.077 181.251C195.839 181.325 195.637 181.437 195.472 181.588C195.31 181.736 195.21 181.937 195.17 182.193C195.11 182.543 195.194 182.807 195.421 182.986C195.648 183.162 195.962 183.25 196.363 183.25ZM203.389 184.136C202.841 184.136 202.38 183.999 202.008 183.723C201.636 183.445 201.373 183.053 201.22 182.547C201.069 182.038 201.051 181.438 201.164 180.744C201.281 180.057 201.498 179.46 201.816 178.955C202.137 178.449 202.531 178.058 202.997 177.783C203.463 177.507 203.971 177.369 204.522 177.369C204.949 177.369 205.274 177.44 205.498 177.582C205.725 177.722 205.89 177.881 205.993 178.06C206.095 178.236 206.173 178.381 206.227 178.494H206.312L206.849 175.273H207.855L206.406 184H205.434L205.605 182.994H205.485C205.392 183.114 205.261 183.264 205.093 183.446C204.926 183.625 204.704 183.786 204.429 183.928C204.156 184.067 203.809 184.136 203.389 184.136ZM203.636 183.233C204.039 183.233 204.4 183.128 204.718 182.918C205.039 182.705 205.306 182.411 205.52 182.036C205.733 181.658 205.88 181.222 205.963 180.727C206.045 180.239 206.042 179.811 205.954 179.445C205.866 179.075 205.697 178.788 205.447 178.584C205.197 178.376 204.866 178.273 204.454 178.273C204.031 178.273 203.663 178.382 203.35 178.601C203.038 178.817 202.784 179.111 202.588 179.483C202.392 179.852 202.255 180.267 202.179 180.727C202.102 181.193 202.1 181.616 202.174 181.997C202.248 182.375 202.404 182.676 202.643 182.901C202.885 183.122 203.216 183.233 203.636 183.233ZM210.842 184.136C210.294 184.136 209.833 183.999 209.461 183.723C209.089 183.445 208.826 183.053 208.673 182.547C208.522 182.038 208.504 181.438 208.618 180.744C208.734 180.057 208.951 179.46 209.27 178.955C209.591 178.449 209.984 178.058 210.45 177.783C210.916 177.507 211.424 177.369 211.975 177.369C212.402 177.369 212.727 177.44 212.951 177.582C213.179 177.722 213.343 177.881 213.446 178.06C213.548 178.236 213.626 178.381 213.68 178.494H213.765L214.302 175.273H215.308L213.859 184H212.887L213.058 182.994H212.939C212.845 183.114 212.714 183.264 212.547 183.446C212.379 183.625 212.157 183.786 211.882 183.928C211.609 184.067 211.262 184.136 210.842 184.136ZM211.089 183.233C211.493 183.233 211.853 183.128 212.172 182.918C212.493 182.705 212.76 182.411 212.973 182.036C213.186 181.658 213.333 181.222 213.416 180.727C213.498 180.239 213.495 179.811 213.407 179.445C213.319 179.075 213.15 178.788 212.9 178.584C212.65 178.376 212.319 178.273 211.907 178.273C211.484 178.273 211.116 178.382 210.804 178.601C210.491 178.817 210.237 179.111 210.041 179.483C209.845 179.852 209.708 180.267 209.632 180.727C209.555 181.193 209.554 181.616 209.627 181.997C209.701 182.375 209.858 182.676 210.096 182.901C210.338 183.122 210.669 183.233 211.089 183.233ZM221.116 184.153C220.701 184.153 220.338 184.075 220.025 183.919C219.713 183.76 219.481 183.531 219.331 183.233C219.18 182.932 219.139 182.568 219.207 182.142C219.272 181.767 219.399 181.463 219.586 181.23C219.774 180.994 220.001 180.81 220.268 180.676C220.538 180.54 220.828 180.439 221.137 180.374C221.45 180.305 221.761 180.253 222.071 180.216C222.474 180.165 222.802 180.125 223.055 180.097C223.308 180.068 223.498 180.021 223.626 179.956C223.754 179.891 223.832 179.778 223.86 179.619V179.585C223.929 179.168 223.873 178.842 223.694 178.609C223.515 178.374 223.196 178.256 222.735 178.256C222.258 178.256 221.859 178.361 221.538 178.571C221.217 178.781 220.98 179.006 220.826 179.244L219.94 178.903C220.173 178.506 220.451 178.196 220.775 177.974C221.099 177.75 221.439 177.594 221.794 177.506C222.149 177.415 222.491 177.369 222.821 177.369C223.031 177.369 223.268 177.395 223.532 177.446C223.797 177.494 224.044 177.595 224.274 177.749C224.507 177.902 224.681 178.134 224.798 178.443C224.917 178.753 224.934 179.168 224.849 179.688L224.133 184H223.127L223.281 183.114H223.23C223.139 183.256 223 183.408 222.812 183.57C222.627 183.732 222.393 183.869 222.109 183.983C221.828 184.097 221.497 184.153 221.116 184.153ZM221.406 183.25C221.804 183.25 222.152 183.172 222.45 183.016C222.751 182.859 222.993 182.658 223.174 182.411C223.359 182.163 223.474 181.903 223.52 181.631L223.673 180.71C223.622 180.761 223.521 180.808 223.37 180.851C223.22 180.891 223.049 180.926 222.859 180.957C222.672 180.986 222.488 181.011 222.309 181.034C222.133 181.054 221.991 181.071 221.883 181.085C221.616 181.119 221.362 181.175 221.12 181.251C220.882 181.325 220.68 181.437 220.515 181.588C220.353 181.736 220.252 181.937 220.213 182.193C220.153 182.543 220.237 182.807 220.464 182.986C220.691 183.162 221.005 183.25 221.406 183.25ZM233.401 186.455L233.972 182.994H233.886C233.793 183.114 233.662 183.264 233.494 183.446C233.33 183.625 233.109 183.786 232.834 183.928C232.558 184.067 232.21 184.136 231.79 184.136C231.244 184.136 230.786 183.999 230.413 183.723C230.041 183.445 229.78 183.053 229.629 182.547C229.479 182.038 229.46 181.438 229.574 180.744C229.688 180.057 229.903 179.46 230.222 178.955C230.54 178.449 230.932 178.058 231.398 177.783C231.864 177.507 232.372 177.369 232.923 177.369C233.349 177.369 233.675 177.44 233.899 177.582C234.126 177.722 234.291 177.881 234.393 178.06C234.496 178.236 234.574 178.381 234.628 178.494H234.747L234.926 177.455H235.898L234.406 186.455H233.401ZM232.071 183.233C232.477 183.233 232.837 183.128 233.149 182.918C233.464 182.705 233.724 182.411 233.929 182.036C234.136 181.658 234.281 181.222 234.364 180.727C234.446 180.239 234.446 179.811 234.364 179.445C234.281 179.075 234.118 178.788 233.874 178.584C233.632 178.376 233.307 178.273 232.898 178.273C232.472 178.273 232.098 178.382 231.777 178.601C231.459 178.817 231.199 179.111 230.997 179.483C230.795 179.852 230.656 180.267 230.58 180.727C230.503 181.193 230.504 181.616 230.584 181.997C230.666 182.375 230.83 182.676 231.074 182.901C231.321 183.122 231.653 183.233 232.071 183.233ZM241.213 181.324L241.86 177.455H242.866L241.775 184H240.77L240.957 182.892H240.889C240.684 183.224 240.399 183.507 240.032 183.74C239.666 183.97 239.235 184.085 238.741 184.085C238.332 184.085 237.983 183.996 237.693 183.817C237.406 183.635 237.201 183.362 237.079 182.999C236.96 182.632 236.946 182.17 237.037 181.614L237.735 177.455H238.741L238.059 181.545C237.983 182.023 238.055 182.403 238.277 182.688C238.498 182.972 238.818 183.114 239.235 183.114C239.485 183.114 239.75 183.05 240.028 182.922C240.309 182.794 240.559 182.598 240.778 182.334C241 182.07 241.145 181.733 241.213 181.324ZM246.344 184.136C245.717 184.136 245.198 183.997 244.789 183.719C244.38 183.438 244.094 183.045 243.933 182.543C243.771 182.037 243.745 181.449 243.856 180.778C243.967 180.108 244.187 179.517 244.516 179.006C244.846 178.491 245.256 178.091 245.748 177.804C246.239 177.514 246.779 177.369 247.367 177.369C247.708 177.369 248.036 177.426 248.352 177.54C248.667 177.653 248.94 177.838 249.17 178.094C249.4 178.347 249.56 178.682 249.651 179.099C249.742 179.517 249.737 180.031 249.634 180.642L249.566 181.068H244.521L244.657 180.199H248.68C248.745 179.83 248.728 179.5 248.629 179.21C248.532 178.92 248.363 178.692 248.121 178.524C247.883 178.357 247.58 178.273 247.214 178.273C246.836 178.273 246.484 178.375 246.157 178.58C245.83 178.781 245.558 179.037 245.339 179.347C245.12 179.653 244.984 179.966 244.93 180.284L244.81 181.034C244.725 181.577 244.738 182.009 244.849 182.33C244.962 182.651 245.16 182.882 245.441 183.024C245.722 183.163 246.075 183.233 246.498 183.233C246.768 183.233 247.016 183.196 247.244 183.122C247.471 183.045 247.674 182.932 247.853 182.781C248.032 182.628 248.183 182.437 248.305 182.21L249.225 182.483C249.069 182.812 248.849 183.102 248.565 183.352C248.283 183.599 247.954 183.793 247.576 183.932C247.201 184.068 246.79 184.136 246.344 184.136ZM256.114 178.92L255.159 179.176C255.125 179.023 255.065 178.875 254.98 178.733C254.898 178.588 254.77 178.47 254.597 178.379C254.426 178.286 254.193 178.239 253.898 178.239C253.497 178.239 253.149 178.331 252.854 178.516C252.558 178.697 252.389 178.929 252.347 179.21C252.304 179.457 252.361 179.655 252.517 179.803C252.673 179.95 252.935 180.071 253.301 180.165L254.239 180.403C254.801 180.548 255.202 180.766 255.44 181.055C255.682 181.342 255.764 181.716 255.688 182.176C255.625 182.551 255.462 182.886 255.197 183.182C254.933 183.477 254.595 183.71 254.183 183.881C253.771 184.051 253.312 184.136 252.807 184.136C252.134 184.136 251.602 183.991 251.213 183.702C250.824 183.409 250.616 182.986 250.591 182.432L251.597 182.193C251.622 182.543 251.747 182.807 251.972 182.986C252.199 183.162 252.517 183.25 252.926 183.25C253.395 183.25 253.786 183.151 254.098 182.952C254.411 182.75 254.588 182.509 254.631 182.227C254.673 181.997 254.628 181.805 254.494 181.652C254.364 181.499 254.136 181.384 253.812 181.307L252.773 181.051C252.193 180.906 251.787 180.685 251.554 180.386C251.324 180.088 251.247 179.713 251.324 179.261C251.386 178.892 251.545 178.565 251.801 178.281C252.06 177.997 252.384 177.774 252.773 177.612C253.165 177.45 253.591 177.369 254.051 177.369C254.699 177.369 255.183 177.511 255.504 177.795C255.825 178.077 256.028 178.452 256.114 178.92ZM260.832 177.455L260.696 178.307H257.304L257.44 177.455H260.832ZM258.684 175.886H259.69L258.65 182.125C258.605 182.409 258.612 182.622 258.672 182.764C258.734 182.903 258.828 182.997 258.953 183.045C259.081 183.091 259.218 183.114 259.366 183.114C259.477 183.114 259.568 183.108 259.639 183.097C259.71 183.082 259.767 183.071 259.809 183.062L259.877 183.966C259.801 183.991 259.697 184.017 259.566 184.043C259.439 184.071 259.281 184.085 259.093 184.085C258.809 184.085 258.542 184.024 258.292 183.902C258.042 183.78 257.85 183.594 257.717 183.344C257.583 183.094 257.548 182.778 257.61 182.398L258.684 175.886ZM261.254 184L262.345 177.455H263.35L262.26 184H261.254ZM263.154 176.347C262.958 176.347 262.789 176.28 262.647 176.146C262.508 176.013 262.439 175.852 262.439 175.665C262.439 175.477 262.508 175.317 262.647 175.183C262.789 175.05 262.958 174.983 263.154 174.983C263.35 174.983 263.518 175.05 263.657 175.183C263.799 175.317 263.87 175.477 263.87 175.665C263.87 175.852 263.799 176.013 263.657 176.146C263.518 176.28 263.35 176.347 263.154 176.347ZM266.803 184.136C266.201 184.136 265.697 183.993 265.29 183.706C264.884 183.419 264.597 183.017 264.43 182.5C264.265 181.983 264.238 181.381 264.349 180.693C264.457 180.023 264.671 179.439 264.992 178.942C265.316 178.442 265.718 178.055 266.198 177.783C266.681 177.507 267.212 177.369 267.792 177.369C268.394 177.369 268.897 177.514 269.3 177.804C269.707 178.091 269.994 178.494 270.161 179.014C270.329 179.531 270.357 180.136 270.246 180.83C270.138 181.494 269.921 182.075 269.594 182.572C269.271 183.067 268.869 183.452 268.388 183.727C267.911 184 267.383 184.136 266.803 184.136ZM266.82 183.233C267.281 183.233 267.68 183.115 268.018 182.879C268.359 182.643 268.634 182.332 268.844 181.946C269.058 181.56 269.201 181.142 269.275 180.693C269.343 180.267 269.34 179.871 269.266 179.504C269.192 179.135 269.035 178.838 268.793 178.614C268.552 178.386 268.212 178.273 267.775 178.273C267.315 178.273 266.913 178.392 266.569 178.631C266.228 178.869 265.952 179.183 265.742 179.572C265.532 179.962 265.391 180.381 265.32 180.83C265.252 181.256 265.254 181.652 265.325 182.018C265.398 182.382 265.556 182.676 265.798 182.901C266.042 183.122 266.383 183.233 266.82 183.233ZM272.915 180.062L272.267 184H271.262L272.353 177.455H273.324L273.154 178.477H273.239C273.444 178.145 273.721 177.878 274.07 177.676C274.419 177.472 274.841 177.369 275.336 177.369C275.773 177.369 276.142 177.46 276.444 177.642C276.748 177.821 276.962 178.094 277.087 178.46C277.215 178.824 277.233 179.284 277.142 179.841L276.444 184H275.438L276.12 179.909C276.205 179.398 276.138 178.997 275.919 178.707C275.703 178.418 275.361 178.273 274.892 178.273C274.569 178.273 274.269 178.342 273.993 178.482C273.721 178.621 273.489 178.824 273.299 179.091C273.111 179.358 272.983 179.682 272.915 180.062ZM283.31 180.062L282.662 184H281.656L283.105 175.273H284.111L283.582 178.477H283.668C283.872 178.136 284.145 177.866 284.486 177.668C284.83 177.469 285.261 177.369 285.781 177.369C286.224 177.369 286.598 177.459 286.902 177.638C287.209 177.814 287.425 178.085 287.55 178.452C287.678 178.815 287.696 179.278 287.605 179.841L286.906 184H285.901L286.582 179.909C286.668 179.389 286.598 178.987 286.374 178.703C286.152 178.416 285.807 178.273 285.338 178.273C285.009 178.273 284.702 178.342 284.418 178.482C284.136 178.621 283.898 178.824 283.702 179.091C283.509 179.358 283.378 179.682 283.31 180.062ZM291.473 184.136C290.846 184.136 290.327 183.997 289.918 183.719C289.509 183.438 289.223 183.045 289.061 182.543C288.9 182.037 288.874 181.449 288.985 180.778C289.096 180.108 289.316 179.517 289.645 179.006C289.975 178.491 290.385 178.091 290.877 177.804C291.368 177.514 291.908 177.369 292.496 177.369C292.837 177.369 293.165 177.426 293.48 177.54C293.796 177.653 294.069 177.838 294.299 178.094C294.529 178.347 294.689 178.682 294.78 179.099C294.871 179.517 294.865 180.031 294.763 180.642L294.695 181.068H289.65L289.786 180.199H293.809C293.874 179.83 293.857 179.5 293.757 179.21C293.661 178.92 293.492 178.692 293.25 178.524C293.012 178.357 292.709 178.273 292.343 178.273C291.965 178.273 291.613 178.375 291.286 178.58C290.959 178.781 290.686 179.037 290.468 179.347C290.249 179.653 290.113 179.966 290.059 180.284L289.939 181.034C289.854 181.577 289.867 182.009 289.978 182.33C290.091 182.651 290.289 182.882 290.57 183.024C290.851 183.163 291.203 183.233 291.627 183.233C291.897 183.233 292.145 183.196 292.373 183.122C292.6 183.045 292.803 182.932 292.982 182.781C293.161 182.628 293.311 182.437 293.434 182.21L294.354 182.483C294.198 182.812 293.978 183.102 293.694 183.352C293.412 183.599 293.083 183.793 292.705 183.932C292.33 184.068 291.919 184.136 291.473 184.136ZM295.754 184L296.845 177.455H297.816L297.646 178.443H297.714C297.885 178.119 298.145 177.857 298.494 177.655C298.843 177.453 299.214 177.352 299.606 177.352C299.683 177.352 299.775 177.354 299.883 177.357C299.991 177.357 300.075 177.361 300.135 177.369L299.964 178.392C299.93 178.384 299.853 178.371 299.734 178.354C299.615 178.334 299.487 178.324 299.35 178.324C299.032 178.324 298.738 178.391 298.468 178.524C298.199 178.655 297.973 178.837 297.791 179.07C297.609 179.3 297.493 179.562 297.441 179.858L296.76 184H295.754ZM302.77 184.136C302.142 184.136 301.624 183.997 301.215 183.719C300.806 183.438 300.52 183.045 300.358 182.543C300.196 182.037 300.171 181.449 300.282 180.778C300.392 180.108 300.613 179.517 300.942 179.006C301.272 178.491 301.682 178.091 302.174 177.804C302.665 177.514 303.205 177.369 303.793 177.369C304.134 177.369 304.462 177.426 304.777 177.54C305.093 177.653 305.365 177.838 305.596 178.094C305.826 178.347 305.986 178.682 306.077 179.099C306.168 179.517 306.162 180.031 306.06 180.642L305.992 181.068H300.946L301.083 180.199H305.105C305.171 179.83 305.154 179.5 305.054 179.21C304.958 178.92 304.789 178.692 304.547 178.524C304.309 178.357 304.006 178.273 303.64 178.273C303.262 178.273 302.909 178.375 302.583 178.58C302.256 178.781 301.983 179.037 301.765 179.347C301.546 179.653 301.409 179.966 301.355 180.284L301.236 181.034C301.151 181.577 301.164 182.009 301.275 182.33C301.388 182.651 301.586 182.882 301.867 183.024C302.148 183.163 302.5 183.233 302.924 183.233C303.194 183.233 303.442 183.196 303.669 183.122C303.897 183.045 304.1 182.932 304.279 182.781C304.458 182.628 304.608 182.437 304.73 182.21L305.651 182.483C305.495 182.812 305.275 183.102 304.99 183.352C304.709 183.599 304.38 183.793 304.002 183.932C303.627 184.068 303.216 184.136 302.77 184.136Z" fill="white"/>
<rect x="146.25" y="200.25" width="11.5" height="11.5" rx="1.75" stroke="#B0B0B0" stroke-width="0.5"/>
<path d="M173.42 206.636C173.42 207.557 173.254 208.352 172.922 209.023C172.589 209.693 172.134 210.21 171.554 210.574C170.974 210.938 170.313 211.119 169.568 211.119C168.824 211.119 168.162 210.938 167.582 210.574C167.003 210.21 166.547 209.693 166.214 209.023C165.882 208.352 165.716 207.557 165.716 206.636C165.716 205.716 165.882 204.92 166.214 204.25C166.547 203.58 167.003 203.062 167.582 202.699C168.162 202.335 168.824 202.153 169.568 202.153C170.313 202.153 170.974 202.335 171.554 202.699C172.134 203.062 172.589 203.58 172.922 204.25C173.254 204.92 173.42 205.716 173.42 206.636ZM172.398 206.636C172.398 205.881 172.271 205.243 172.018 204.723C171.768 204.203 171.429 203.81 171 203.543C170.574 203.276 170.097 203.142 169.568 203.142C169.04 203.142 168.561 203.276 168.132 203.543C167.706 203.81 167.366 204.203 167.114 204.723C166.864 205.243 166.739 205.881 166.739 206.636C166.739 207.392 166.864 208.03 167.114 208.55C167.366 209.07 167.706 209.463 168.132 209.73C168.561 209.997 169.04 210.131 169.568 210.131C170.097 210.131 170.574 209.997 171 209.73C171.429 209.463 171.768 209.07 172.018 208.55C172.271 208.03 172.398 207.392 172.398 206.636ZM175.061 213.455V204.455H176.033V205.494H176.152C176.226 205.381 176.328 205.236 176.459 205.06C176.592 204.881 176.783 204.722 177.03 204.582C177.28 204.44 177.618 204.369 178.044 204.369C178.595 204.369 179.081 204.507 179.501 204.783C179.922 205.058 180.25 205.449 180.486 205.955C180.722 206.46 180.839 207.057 180.839 207.744C180.839 208.438 180.722 209.038 180.486 209.547C180.25 210.053 179.923 210.445 179.506 210.723C179.088 210.999 178.607 211.136 178.061 211.136C177.641 211.136 177.304 211.067 177.051 210.928C176.798 210.786 176.604 210.625 176.467 210.446C176.331 210.264 176.226 210.114 176.152 209.994H176.067V213.455H175.061ZM176.05 207.727C176.05 208.222 176.122 208.658 176.267 209.036C176.412 209.411 176.624 209.705 176.902 209.918C177.18 210.128 177.521 210.233 177.925 210.233C178.345 210.233 178.696 210.122 178.977 209.901C179.261 209.676 179.474 209.375 179.616 208.997C179.761 208.616 179.834 208.193 179.834 207.727C179.834 207.267 179.763 206.852 179.621 206.483C179.482 206.111 179.27 205.817 178.986 205.601C178.705 205.382 178.351 205.273 177.925 205.273C177.516 205.273 177.172 205.376 176.893 205.584C176.615 205.788 176.405 206.075 176.263 206.445C176.121 206.811 176.05 207.239 176.05 207.727ZM185.22 204.455V205.307H181.828V204.455H185.22ZM182.817 202.886H183.822V209.125C183.822 209.409 183.864 209.622 183.946 209.764C184.031 209.903 184.139 209.997 184.27 210.045C184.403 210.091 184.544 210.114 184.692 210.114C184.803 210.114 184.893 210.108 184.964 210.097C185.036 210.082 185.092 210.071 185.135 210.062L185.339 210.966C185.271 210.991 185.176 211.017 185.054 211.043C184.932 211.071 184.777 211.085 184.589 211.085C184.305 211.085 184.027 211.024 183.754 210.902C183.484 210.78 183.26 210.594 183.081 210.344C182.905 210.094 182.817 209.778 182.817 209.398V202.886ZM186.733 211V204.455H187.739V211H186.733ZM187.244 203.364C187.048 203.364 186.879 203.297 186.737 203.163C186.598 203.03 186.528 202.869 186.528 202.682C186.528 202.494 186.598 202.334 186.737 202.2C186.879 202.067 187.048 202 187.244 202C187.44 202 187.608 202.067 187.747 202.2C187.889 202.334 187.96 202.494 187.96 202.682C187.96 202.869 187.889 203.03 187.747 203.163C187.608 203.297 187.44 203.364 187.244 203.364ZM192.24 211.136C191.649 211.136 191.13 210.996 190.684 210.714C190.241 210.433 189.895 210.04 189.645 209.534C189.397 209.028 189.274 208.437 189.274 207.761C189.274 207.08 189.397 206.484 189.645 205.976C189.895 205.467 190.241 205.072 190.684 204.791C191.13 204.51 191.649 204.369 192.24 204.369C192.831 204.369 193.348 204.51 193.791 204.791C194.237 205.072 194.583 205.467 194.831 205.976C195.081 206.484 195.206 207.08 195.206 207.761C195.206 208.437 195.081 209.028 194.831 209.534C194.583 210.04 194.237 210.433 193.791 210.714C193.348 210.996 192.831 211.136 192.24 211.136ZM192.24 210.233C192.689 210.233 193.058 210.118 193.348 209.888C193.637 209.658 193.852 209.355 193.991 208.98C194.13 208.605 194.2 208.199 194.2 207.761C194.2 207.324 194.13 206.916 193.991 206.538C193.852 206.161 193.637 205.855 193.348 205.622C193.058 205.389 192.689 205.273 192.24 205.273C191.791 205.273 191.422 205.389 191.132 205.622C190.842 205.855 190.627 206.161 190.488 206.538C190.349 206.916 190.279 207.324 190.279 207.761C190.279 208.199 190.349 208.605 190.488 208.98C190.627 209.355 190.842 209.658 191.132 209.888C191.422 210.118 191.791 210.233 192.24 210.233ZM197.746 207.062V211H196.741V204.455H197.712V205.477H197.798C197.951 205.145 198.184 204.878 198.496 204.676C198.809 204.472 199.212 204.369 199.707 204.369C200.15 204.369 200.538 204.46 200.87 204.642C201.202 204.821 201.461 205.094 201.646 205.46C201.83 205.824 201.923 206.284 201.923 206.841V211H200.917V206.909C200.917 206.395 200.783 205.994 200.516 205.707C200.249 205.418 199.883 205.273 199.417 205.273C199.096 205.273 198.809 205.342 198.556 205.482C198.306 205.621 198.109 205.824 197.964 206.091C197.819 206.358 197.746 206.682 197.746 207.062ZM210.186 202.273V211H209.13V203.381H209.078L206.948 204.795V203.722L209.13 202.273H210.186Z" fill="#B0B0B0"/>
<rect x="116.25" y="32.25" width="531.5" height="90.5" rx="5.75" fill="#0C0C0C" stroke="#303030" stroke-width="0.5"/>
<path d="M141.724 50.5455H144.886V61.9489C144.886 63.1989 144.591 64.2983 144 65.2472C143.415 66.196 142.591 66.9375 141.528 67.4716C140.466 68 139.224 68.2642 137.804 68.2642C136.378 68.2642 135.134 68 134.071 67.4716C133.009 66.9375 132.185 66.196 131.599 65.2472C131.014 64.2983 130.722 63.1989 130.722 61.9489V50.5455H133.884V61.6847C133.884 62.4119 134.043 63.0597 134.361 63.6278C134.685 64.196 135.139 64.642 135.724 64.9659C136.31 65.2841 137.003 65.4432 137.804 65.4432C138.605 65.4432 139.298 65.2841 139.884 64.9659C140.474 64.642 140.929 64.196 141.247 63.6278C141.565 63.0597 141.724 62.4119 141.724 61.6847V50.5455ZM151.272 60.3295V68H148.187V54.9091H151.136V57.1335H151.289C151.59 56.4006 152.07 55.8182 152.729 55.3864C153.394 54.9545 154.215 54.7386 155.192 54.7386C156.096 54.7386 156.883 54.9318 157.553 55.3182C158.229 55.7045 158.752 56.2642 159.121 56.9972C159.496 57.7301 159.681 58.6193 159.675 59.6648V68H156.59V60.142C156.59 59.267 156.363 58.5824 155.908 58.0881C155.46 57.5937 154.837 57.3466 154.042 57.3466C153.502 57.3466 153.022 57.4659 152.602 57.7045C152.187 57.9375 151.86 58.2756 151.621 58.7188C151.388 59.1619 151.272 59.6989 151.272 60.3295ZM169.349 54.9091V57.2955H161.823V54.9091H169.349ZM163.681 51.7727H166.766V64.0625C166.766 64.4773 166.829 64.7955 166.954 65.017C167.085 65.233 167.255 65.3807 167.465 65.4602C167.675 65.5398 167.908 65.5795 168.164 65.5795C168.357 65.5795 168.533 65.5653 168.692 65.5369C168.857 65.5085 168.982 65.483 169.067 65.4602L169.587 67.8722C169.423 67.929 169.187 67.9915 168.88 68.0597C168.579 68.1278 168.21 68.1676 167.772 68.179C166.999 68.2017 166.303 68.0852 165.684 67.8295C165.065 67.5682 164.573 67.1648 164.21 66.6193C163.852 66.0739 163.675 65.392 163.681 64.5739V51.7727ZM171.929 68V54.9091H175.014V68H171.929ZM173.48 53.0511C172.991 53.0511 172.571 52.8892 172.219 52.5653C171.866 52.2358 171.69 51.8409 171.69 51.3807C171.69 50.9148 171.866 50.5199 172.219 50.196C172.571 49.8665 172.991 49.7017 173.48 49.7017C173.974 49.7017 174.395 49.8665 174.741 50.196C175.094 50.5199 175.27 50.9148 175.27 51.3807C175.27 51.8409 175.094 52.2358 174.741 52.5653C174.395 52.8892 173.974 53.0511 173.48 53.0511ZM184.724 54.9091V57.2955H177.198V54.9091H184.724ZM179.056 51.7727H182.141V64.0625C182.141 64.4773 182.204 64.7955 182.329 65.017C182.46 65.233 182.63 65.3807 182.84 65.4602C183.05 65.5398 183.283 65.5795 183.539 65.5795C183.732 65.5795 183.908 65.5653 184.067 65.5369C184.232 65.5085 184.357 65.483 184.442 65.4602L184.962 67.8722C184.798 67.929 184.562 67.9915 184.255 68.0597C183.954 68.1278 183.585 68.1676 183.147 68.179C182.374 68.2017 181.678 68.0852 181.059 67.8295C180.44 67.5682 179.948 67.1648 179.585 66.6193C179.227 66.0739 179.05 65.392 179.056 64.5739V51.7727ZM190.67 50.5455V68H187.585V50.5455H190.67ZM199.638 68.2557C198.326 68.2557 197.192 67.983 196.238 67.4375C195.289 66.8864 194.559 66.108 194.048 65.1023C193.536 64.0909 193.281 62.9006 193.281 61.5312C193.281 60.1847 193.536 59.0028 194.048 57.9858C194.565 56.9631 195.286 56.1676 196.212 55.5994C197.138 55.0256 198.227 54.7386 199.477 54.7386C200.283 54.7386 201.045 54.8693 201.761 55.1307C202.482 55.3864 203.119 55.7841 203.67 56.3239C204.227 56.8636 204.664 57.5511 204.982 58.3864C205.3 59.2159 205.46 60.2045 205.46 61.3523V62.2983H194.729V60.2188H202.502C202.496 59.6278 202.369 59.1023 202.119 58.642C201.869 58.1761 201.519 57.8097 201.07 57.5426C200.627 57.2756 200.11 57.142 199.519 57.142C198.888 57.142 198.335 57.2955 197.857 57.6023C197.38 57.9034 197.008 58.3011 196.741 58.7955C196.479 59.2841 196.346 59.821 196.34 60.4062V62.2216C196.34 62.983 196.479 63.6364 196.758 64.1818C197.036 64.7216 197.425 65.1364 197.925 65.4261C198.425 65.7102 199.011 65.8523 199.681 65.8523C200.13 65.8523 200.536 65.7898 200.9 65.6648C201.263 65.5341 201.579 65.3438 201.846 65.0938C202.113 64.8438 202.315 64.5341 202.451 64.1648L205.332 64.4886C205.15 65.25 204.803 65.9148 204.292 66.483C203.786 67.0455 203.138 67.483 202.349 67.7955C201.559 68.1023 200.656 68.2557 199.638 68.2557ZM212.928 68.2301C211.899 68.2301 210.979 67.9659 210.166 67.4375C209.354 66.9091 208.712 66.142 208.24 65.1364C207.768 64.1307 207.533 62.9091 207.533 61.4716C207.533 60.017 207.771 58.7898 208.249 57.7898C208.732 56.7841 209.382 56.0256 210.2 55.5142C211.018 54.9972 211.93 54.7386 212.936 54.7386C213.703 54.7386 214.334 54.8693 214.828 55.1307C215.322 55.3864 215.714 55.696 216.004 56.0597C216.294 56.4176 216.518 56.7557 216.678 57.0739H216.805V50.5455H219.899V68H216.865V65.9375H216.678C216.518 66.2557 216.288 66.5937 215.987 66.9517C215.686 67.304 215.288 67.6051 214.794 67.8551C214.3 68.1051 213.678 68.2301 212.928 68.2301ZM213.788 65.6989C214.442 65.6989 214.999 65.5227 215.459 65.1705C215.919 64.8125 216.268 64.3153 216.507 63.679C216.746 63.0426 216.865 62.3011 216.865 61.4545C216.865 60.608 216.746 59.8722 216.507 59.2472C216.274 58.6222 215.928 58.1364 215.467 57.7898C215.013 57.4432 214.453 57.2699 213.788 57.2699C213.101 57.2699 212.527 57.4489 212.067 57.8068C211.607 58.1648 211.26 58.6591 211.027 59.2898C210.794 59.9205 210.678 60.642 210.678 61.4545C210.678 62.2727 210.794 63.0028 211.027 63.6449C211.266 64.2812 211.615 64.7841 212.075 65.1534C212.541 65.517 213.112 65.6989 213.788 65.6989ZM235.771 54.9091V57.2955H228.032V54.9091H235.771ZM229.967 68V53.6733C229.967 52.7926 230.148 52.0597 230.512 51.4744C230.881 50.8892 231.376 50.4517 231.995 50.1619C232.614 49.8722 233.302 49.7273 234.058 49.7273C234.592 49.7273 235.066 49.7699 235.481 49.8551C235.896 49.9403 236.202 50.017 236.401 50.0852L235.788 52.4716C235.657 52.4318 235.492 52.392 235.293 52.3523C235.094 52.3068 234.873 52.2841 234.629 52.2841C234.055 52.2841 233.648 52.4233 233.41 52.7017C233.177 52.9744 233.06 53.3665 233.06 53.8778V68H229.967ZM243.405 68.2557C242.126 68.2557 241.018 67.9744 240.081 67.4119C239.143 66.8494 238.416 66.0625 237.899 65.0511C237.388 64.0398 237.132 62.858 237.132 61.5057C237.132 60.1534 237.388 58.9687 237.899 57.9517C238.416 56.9347 239.143 56.1449 240.081 55.5824C241.018 55.0199 242.126 54.7386 243.405 54.7386C244.683 54.7386 245.791 55.0199 246.729 55.5824C247.666 56.1449 248.391 56.9347 248.902 57.9517C249.419 58.9687 249.678 60.1534 249.678 61.5057C249.678 62.858 249.419 64.0398 248.902 65.0511C248.391 66.0625 247.666 66.8494 246.729 67.4119C245.791 67.9744 244.683 68.2557 243.405 68.2557ZM243.422 65.7841C244.115 65.7841 244.695 65.5937 245.161 65.2131C245.626 64.8267 245.973 64.3097 246.2 63.6619C246.433 63.0142 246.55 62.2926 246.55 61.4972C246.55 60.696 246.433 59.9716 246.2 59.3239C245.973 58.6705 245.626 58.1506 245.161 57.7642C244.695 57.3778 244.115 57.1847 243.422 57.1847C242.712 57.1847 242.121 57.3778 241.649 57.7642C241.183 58.1506 240.834 58.6705 240.601 59.3239C240.374 59.9716 240.26 60.696 240.26 61.4972C240.26 62.2926 240.374 63.0142 240.601 63.6619C240.834 64.3097 241.183 64.8267 241.649 65.2131C242.121 65.5937 242.712 65.7841 243.422 65.7841ZM252.296 68V54.9091H255.288V57.0909H255.424C255.663 56.3352 256.072 55.7528 256.651 55.3438C257.237 54.929 257.904 54.7216 258.654 54.7216C258.825 54.7216 259.015 54.7301 259.225 54.7472C259.441 54.7585 259.62 54.7784 259.762 54.8068V57.6449C259.631 57.5994 259.424 57.5597 259.14 57.5256C258.862 57.4858 258.592 57.4659 258.33 57.4659C257.768 57.4659 257.262 57.5881 256.813 57.8324C256.37 58.071 256.021 58.4034 255.765 58.8295C255.509 59.2557 255.381 59.7472 255.381 60.304V68H252.296ZM261.812 68V54.9091H264.761V57.1335H264.914C265.187 56.3835 265.638 55.7983 266.269 55.3778C266.9 54.9517 267.653 54.7386 268.528 54.7386C269.414 54.7386 270.161 54.9545 270.769 55.3864C271.383 55.8125 271.815 56.3949 272.065 57.1335H272.201C272.491 56.4062 272.979 55.8267 273.667 55.3949C274.36 54.9574 275.181 54.7386 276.13 54.7386C277.335 54.7386 278.317 55.1193 279.079 55.8807C279.84 56.642 280.221 57.7528 280.221 59.2131V68H277.127V59.6903C277.127 58.8778 276.911 58.2841 276.479 57.9091C276.048 57.5284 275.519 57.3381 274.894 57.3381C274.15 57.3381 273.567 57.571 273.147 58.0369C272.732 58.4972 272.525 59.0966 272.525 59.8352V68H269.499V59.5625C269.499 58.8864 269.295 58.3466 268.886 57.9432C268.482 57.5398 267.954 57.3381 267.3 57.3381C266.857 57.3381 266.454 57.4517 266.09 57.679C265.727 57.9006 265.437 58.2159 265.221 58.625C265.005 59.0284 264.897 59.5 264.897 60.0398V68H261.812Z" fill="white"/>
<path d="M130.321 95V84.0909H136.862V85.2628H131.642V88.9489H136.372V90.1207H131.642V95H130.321ZM141.678 95.1705C140.939 95.1705 140.291 94.9947 139.733 94.6431C139.179 94.2915 138.746 93.7997 138.434 93.1676C138.125 92.5355 137.97 91.7969 137.97 90.9517C137.97 90.0994 138.125 89.3555 138.434 88.7198C138.746 88.0842 139.179 87.5906 139.733 87.239C140.291 86.8874 140.939 86.7116 141.678 86.7116C142.416 86.7116 143.063 86.8874 143.616 87.239C144.174 87.5906 144.607 88.0842 144.916 88.7198C145.229 89.3555 145.385 90.0994 145.385 90.9517C145.385 91.7969 145.229 92.5355 144.916 93.1676C144.607 93.7997 144.174 94.2915 143.616 94.6431C143.063 94.9947 142.416 95.1705 141.678 95.1705ZM141.678 94.0412C142.239 94.0412 142.7 93.8974 143.062 93.6097C143.425 93.3221 143.693 92.9439 143.867 92.4751C144.041 92.0064 144.128 91.4986 144.128 90.9517C144.128 90.4048 144.041 89.8952 143.867 89.4229C143.693 88.9506 143.425 88.5689 143.062 88.2777C142.7 87.9865 142.239 87.8409 141.678 87.8409C141.116 87.8409 140.655 87.9865 140.293 88.2777C139.93 88.5689 139.662 88.9506 139.488 89.4229C139.314 89.8952 139.227 90.4048 139.227 90.9517C139.227 91.4986 139.314 92.0064 139.488 92.4751C139.662 92.9439 139.93 93.3221 140.293 93.6097C140.655 93.8974 141.116 94.0412 141.678 94.0412ZM147.304 95V86.8182H148.518V88.054H148.604C148.753 87.6491 149.023 87.3207 149.413 87.0685C149.804 86.8164 150.244 86.6903 150.734 86.6903C150.827 86.6903 150.942 86.6921 151.081 86.6957C151.219 86.6992 151.324 86.7045 151.395 86.7116V87.9901C151.352 87.9794 151.255 87.9634 151.102 87.9421C150.953 87.9173 150.795 87.9048 150.628 87.9048C150.23 87.9048 149.875 87.9883 149.562 88.1552C149.253 88.3185 149.008 88.5458 148.827 88.837C148.65 89.1246 148.561 89.4531 148.561 89.8224V95H147.304ZM152.885 95V86.8182H154.099V88.0966H154.206C154.376 87.6598 154.652 87.3207 155.032 87.0792C155.412 86.8342 155.868 86.7116 156.401 86.7116C156.94 86.7116 157.39 86.8342 157.748 87.0792C158.11 87.3207 158.393 87.6598 158.595 88.0966H158.68C158.89 87.674 159.204 87.3384 159.623 87.0898C160.042 86.8377 160.545 86.7116 161.131 86.7116C161.862 86.7116 162.461 86.9407 162.926 87.3988C163.391 87.8533 163.624 88.5618 163.624 89.5241V95H162.366V89.5241C162.366 88.9205 162.201 88.489 161.871 88.2298C161.541 87.9705 161.152 87.8409 160.705 87.8409C160.129 87.8409 159.684 88.0149 159.368 88.3629C159.051 88.7074 158.893 89.1442 158.893 89.6733V95H157.615V89.3963C157.615 88.9311 157.464 88.5565 157.162 88.2724C156.86 87.9847 156.472 87.8409 155.996 87.8409C155.669 87.8409 155.364 87.9279 155.08 88.1019C154.799 88.2759 154.572 88.5174 154.398 88.8263C154.227 89.1317 154.142 89.4851 154.142 89.8864V95H152.885ZM173.23 95.1705C172.548 95.1705 171.947 94.9982 171.425 94.6538C170.903 94.3058 170.494 93.8157 170.199 93.1836C169.905 92.5479 169.757 91.7969 169.757 90.9304C169.757 90.071 169.905 89.3253 170.199 88.6932C170.494 88.0611 170.904 87.5728 171.43 87.2283C171.955 86.8839 172.563 86.7116 173.252 86.7116C173.784 86.7116 174.205 86.8004 174.514 86.978C174.827 87.152 175.064 87.3509 175.228 87.5746C175.395 87.7947 175.524 87.9759 175.617 88.1179H175.723V84.0909H176.98V95H175.766V93.7429H175.617C175.524 93.892 175.393 94.0803 175.222 94.3075C175.052 94.5312 174.809 94.7319 174.493 94.9094C174.177 95.0835 173.756 95.1705 173.23 95.1705ZM173.401 94.0412C173.905 94.0412 174.331 93.9098 174.679 93.647C175.027 93.3807 175.292 93.0131 175.473 92.5444C175.654 92.0721 175.744 91.527 175.744 90.9091C175.744 90.2983 175.656 89.7638 175.478 89.3058C175.301 88.8441 175.038 88.4854 174.69 88.2298C174.342 87.9705 173.912 87.8409 173.401 87.8409C172.868 87.8409 172.424 87.9776 172.069 88.2511C171.718 88.521 171.453 88.8885 171.275 89.3537C171.101 89.8153 171.014 90.3338 171.014 90.9091C171.014 91.4915 171.103 92.0206 171.281 92.4964C171.462 92.9687 171.728 93.3452 172.08 93.6257C172.435 93.9027 172.875 94.0412 173.401 94.0412ZM182.888 95.1705C182.099 95.1705 181.419 94.9964 180.847 94.6484C180.279 94.2969 179.841 93.8068 179.532 93.1783C179.226 92.5462 179.074 91.8111 179.074 90.973C179.074 90.1349 179.226 89.3963 179.532 88.7571C179.841 88.1143 180.27 87.6136 180.821 87.255C181.375 86.8928 182.021 86.7116 182.76 86.7116C183.186 86.7116 183.607 86.7827 184.022 86.9247C184.438 87.0668 184.816 87.2976 185.157 87.6172C185.498 87.9332 185.769 88.3523 185.972 88.8743C186.174 89.3963 186.275 90.0391 186.275 90.8026V91.3352H179.969V90.2486H184.997C184.997 89.7869 184.905 89.375 184.72 89.0128C184.539 88.6506 184.28 88.3647 183.942 88.1552C183.608 87.9457 183.214 87.8409 182.76 87.8409C182.259 87.8409 181.826 87.9652 181.46 88.2138C181.098 88.4588 180.819 88.7784 180.624 89.1726C180.428 89.5668 180.331 89.9893 180.331 90.4403V91.1648C180.331 91.7827 180.437 92.3065 180.65 92.7362C180.867 93.1623 181.167 93.4872 181.551 93.7109C181.934 93.9311 182.38 94.0412 182.888 94.0412C183.218 94.0412 183.516 93.995 183.782 93.9027C184.052 93.8068 184.285 93.6648 184.48 93.4766C184.676 93.2848 184.827 93.0469 184.933 92.7628L186.148 93.1037C186.02 93.5156 185.805 93.8778 185.503 94.1903C185.201 94.4993 184.828 94.7408 184.384 94.9148C183.941 95.0852 183.442 95.1705 182.888 95.1705ZM193.983 88.6506L192.854 88.9702C192.783 88.782 192.678 88.5991 192.54 88.4215C192.405 88.2404 192.22 88.0913 191.986 87.9741C191.751 87.8569 191.451 87.7983 191.085 87.7983C190.585 87.7983 190.167 87.9137 189.834 88.1445C189.503 88.3718 189.338 88.6612 189.338 89.0128C189.338 89.3253 189.452 89.5721 189.679 89.7532C189.906 89.9343 190.262 90.0852 190.744 90.206L191.959 90.5043C192.691 90.6818 193.236 90.9535 193.594 91.3192C193.953 91.6815 194.132 92.1484 194.132 92.7202C194.132 93.1889 193.997 93.608 193.727 93.9773C193.461 94.3466 193.088 94.6378 192.609 94.8509C192.129 95.0639 191.572 95.1705 190.936 95.1705C190.102 95.1705 189.411 94.9893 188.864 94.6271C188.317 94.2649 187.971 93.7358 187.825 93.0398L189.019 92.7415C189.132 93.1818 189.347 93.5121 189.663 93.7322C189.983 93.9524 190.4 94.0625 190.915 94.0625C191.501 94.0625 191.966 93.9382 192.311 93.6896C192.659 93.4375 192.833 93.1357 192.833 92.7841C192.833 92.5 192.733 92.2621 192.534 92.0703C192.335 91.875 192.03 91.7294 191.618 91.6335L190.254 91.3139C189.505 91.1364 188.955 90.8612 188.603 90.4883C188.255 90.1119 188.081 89.6413 188.081 89.0767C188.081 88.6151 188.211 88.2067 188.47 87.8516C188.733 87.4964 189.09 87.2177 189.541 87.0153C189.995 86.8129 190.51 86.7116 191.085 86.7116C191.895 86.7116 192.531 86.8892 192.992 87.2443C193.458 87.5994 193.788 88.0682 193.983 88.6506ZM199.348 95.1705C198.581 95.1705 197.921 94.9893 197.367 94.6271C196.813 94.2649 196.387 93.766 196.089 93.1303C195.79 92.4947 195.641 91.7685 195.641 90.9517C195.641 90.1207 195.794 89.3874 196.099 88.7518C196.408 88.1126 196.838 87.6136 197.388 87.255C197.942 86.8928 198.589 86.7116 199.327 86.7116C199.902 86.7116 200.421 86.8182 200.883 87.0312C201.344 87.2443 201.722 87.5426 202.017 87.9261C202.312 88.3097 202.495 88.7571 202.566 89.2685H201.309C201.213 88.8956 201 88.5653 200.669 88.2777C200.343 87.9865 199.902 87.8409 199.348 87.8409C198.858 87.8409 198.429 87.9687 198.059 88.2244C197.694 88.4766 197.408 88.8335 197.202 89.2951C196.999 89.7532 196.898 90.2912 196.898 90.9091C196.898 91.5412 196.998 92.0916 197.196 92.5604C197.399 93.0291 197.683 93.3931 198.049 93.6523C198.418 93.9116 198.851 94.0412 199.348 94.0412C199.675 94.0412 199.972 93.9844 200.238 93.8707C200.504 93.7571 200.73 93.5938 200.915 93.3807C201.099 93.1676 201.231 92.9119 201.309 92.6136H202.566C202.495 93.0966 202.319 93.5316 202.038 93.9187C201.761 94.3022 201.394 94.6076 200.936 94.8349C200.481 95.0586 199.952 95.1705 199.348 95.1705ZM204.403 95V86.8182H205.618V88.054H205.703C205.852 87.6491 206.122 87.3207 206.513 87.0685C206.903 86.8164 207.344 86.6903 207.834 86.6903C207.926 86.6903 208.042 86.6921 208.18 86.6957C208.319 86.6992 208.423 86.7045 208.494 86.7116V87.9901C208.452 87.9794 208.354 87.9634 208.201 87.9421C208.052 87.9173 207.894 87.9048 207.727 87.9048C207.33 87.9048 206.975 87.9883 206.662 88.1552C206.353 88.3185 206.108 88.5458 205.927 88.837C205.749 89.1246 205.661 89.4531 205.661 89.8224V95H204.403ZM209.985 95V86.8182H211.242V95H209.985ZM210.624 85.4545C210.379 85.4545 210.167 85.3711 209.99 85.2042C209.816 85.0373 209.729 84.8366 209.729 84.6023C209.729 84.3679 209.816 84.1673 209.99 84.0004C210.167 83.8335 210.379 83.75 210.624 83.75C210.869 83.75 211.078 83.8335 211.252 84.0004C211.43 84.1673 211.519 84.3679 211.519 84.6023C211.519 84.8366 211.43 85.0373 211.252 85.2042C211.078 85.3711 210.869 85.4545 210.624 85.4545ZM213.544 98.0682V86.8182H214.759V88.1179H214.908C215 87.9759 215.128 87.7947 215.291 87.5746C215.458 87.3509 215.696 87.152 216.005 86.978C216.318 86.8004 216.74 86.7116 217.273 86.7116C217.962 86.7116 218.569 86.8839 219.095 87.2283C219.62 87.5728 220.03 88.0611 220.325 88.6932C220.62 89.3253 220.767 90.071 220.767 90.9304C220.767 91.7969 220.62 92.5479 220.325 93.1836C220.03 93.8157 219.622 94.3058 219.1 94.6538C218.578 94.9982 217.976 95.1705 217.294 95.1705C216.769 95.1705 216.348 95.0835 216.032 94.9094C215.716 94.7319 215.472 94.5312 215.302 94.3075C215.131 94.0803 215 93.892 214.908 93.7429H214.801V98.0682H213.544ZM214.78 90.9091C214.78 91.527 214.87 92.0721 215.052 92.5444C215.233 93.0131 215.497 93.3807 215.845 93.647C216.193 93.9098 216.619 94.0412 217.124 94.0412C217.649 94.0412 218.088 93.9027 218.439 93.6257C218.794 93.3452 219.061 92.9687 219.238 92.4964C219.419 92.0206 219.51 91.4915 219.51 90.9091C219.51 90.3338 219.421 89.8153 219.244 89.3537C219.07 88.8885 218.805 88.521 218.45 88.2511C218.098 87.9776 217.656 87.8409 217.124 87.8409C216.612 87.8409 216.183 87.9705 215.835 88.2298C215.487 88.4854 215.224 88.8441 215.046 89.3058C214.869 89.7638 214.78 90.2983 214.78 90.9091ZM226.243 86.8182V87.8835H222.003V86.8182H226.243ZM223.239 84.858H224.496V92.6562C224.496 93.0114 224.547 93.2777 224.65 93.4553C224.757 93.6293 224.892 93.7464 225.055 93.8068C225.222 93.8636 225.398 93.892 225.582 93.892C225.721 93.892 225.835 93.8849 225.923 93.8707C226.012 93.853 226.083 93.8388 226.136 93.8281L226.392 94.9574C226.307 94.9893 226.188 95.0213 226.035 95.0533C225.883 95.0888 225.689 95.1065 225.455 95.1065C225.1 95.1065 224.752 95.0302 224.411 94.8775C224.073 94.7248 223.793 94.4922 223.569 94.1797C223.349 93.8672 223.239 93.473 223.239 92.9972V84.858ZM228.134 95V86.8182H229.391V95H228.134ZM228.773 85.4545C228.528 85.4545 228.317 85.3711 228.139 85.2042C227.965 85.0373 227.878 84.8366 227.878 84.6023C227.878 84.3679 227.965 84.1673 228.139 84.0004C228.317 83.8335 228.528 83.75 228.773 83.75C229.018 83.75 229.228 83.8335 229.402 84.0004C229.579 84.1673 229.668 84.3679 229.668 84.6023C229.668 84.8366 229.579 85.0373 229.402 85.2042C229.228 85.3711 229.018 85.4545 228.773 85.4545ZM235.017 95.1705C234.279 95.1705 233.631 94.9947 233.073 94.6431C232.519 94.2915 232.086 93.7997 231.773 93.1676C231.464 92.5355 231.31 91.7969 231.31 90.9517C231.31 90.0994 231.464 89.3555 231.773 88.7198C232.086 88.0842 232.519 87.5906 233.073 87.239C233.631 86.8874 234.279 86.7116 235.017 86.7116C235.756 86.7116 236.402 86.8874 236.956 87.239C237.514 87.5906 237.947 88.0842 238.256 88.7198C238.569 89.3555 238.725 90.0994 238.725 90.9517C238.725 91.7969 238.569 92.5355 238.256 93.1676C237.947 93.7997 237.514 94.2915 236.956 94.6431C236.402 94.9947 235.756 95.1705 235.017 95.1705ZM235.017 94.0412C235.578 94.0412 236.04 93.8974 236.402 93.6097C236.765 93.3221 237.033 92.9439 237.207 92.4751C237.381 92.0064 237.468 91.4986 237.468 90.9517C237.468 90.4048 237.381 89.8952 237.207 89.4229C237.033 88.9506 236.765 88.5689 236.402 88.2777C236.04 87.9865 235.578 87.8409 235.017 87.8409C234.456 87.8409 233.995 87.9865 233.632 88.2777C233.27 88.5689 233.002 88.9506 232.828 89.4229C232.654 89.8952 232.567 90.4048 232.567 90.9517C232.567 91.4986 232.654 92.0064 232.828 92.4751C233.002 92.9439 233.27 93.3221 233.632 93.6097C233.995 93.8974 234.456 94.0412 235.017 94.0412ZM241.901 90.0781V95H240.644V86.8182H241.858V88.0966H241.965C242.157 87.6811 242.448 87.3473 242.838 87.0952C243.229 86.8395 243.733 86.7116 244.351 86.7116C244.905 86.7116 245.39 86.8253 245.805 87.0526C246.221 87.2763 246.544 87.6172 246.775 88.0753C247.006 88.5298 247.121 89.1051 247.121 89.8011V95H245.864V89.8864C245.864 89.2436 245.697 88.7429 245.363 88.3842C245.029 88.022 244.571 87.8409 243.989 87.8409C243.588 87.8409 243.229 87.9279 242.913 88.1019C242.6 88.2759 242.354 88.5298 242.172 88.8636C241.991 89.1974 241.901 89.6023 241.901 90.0781Z" fill="#B0B0B0"/>
<rect x="12.25" y="32.25" width="35.5" height="258.5" rx="4.75" fill="#0C0C0C" stroke="#303030" stroke-width="0.5"/>
<path d="M23 84H37M23 88H37M23 92H29" stroke="white" stroke-width="2" stroke-linecap="round" stroke-linejoin="round"/>
<path d="M22 43H38V45H22V43ZM22 47H32V49H22V47Z" fill="white"/>
<path d="M24.873 129.297V122.142H23.699L22 123.379V124.516L23.64 123.336H23.7V129.297H24.873ZM28.086 124.207V124.144C28.086 123.526 28.526 122.975 29.282 122.975C29.958 122.975 30.456 123.415 30.456 124.081C30.456 124.705 30.036 125.182 29.649 125.607L26.99 128.553V129.297H31.77V128.307H28.643V128.238L30.41 126.252C31.06 125.528 31.647 124.92 31.647 123.982C31.646 122.849 30.723 122 29.308 122C27.735 122 26.948 123.064 26.948 124.15V124.207H28.086ZM34.645 126.09H35.431C36.254 126.09 36.805 126.571 36.81 127.269C36.82 127.976 36.26 128.485 35.389 128.479C34.619 128.474 34.063 128.06 34.01 127.526H32.915C32.957 128.579 33.853 129.444 35.379 129.444C36.857 129.444 38.021 128.605 37.999 127.3C37.979 126.157 37.077 125.649 36.448 125.586V125.523C36.983 125.433 37.795 124.863 37.774 123.845C37.748 122.792 36.841 121.99 35.415 122C33.915 122.005 33.098 122.88 33.067 123.898H34.183C34.215 123.4 34.681 122.954 35.389 122.954C36.092 122.954 36.595 123.389 36.595 124.024C36.6 124.664 36.091 125.13 35.395 125.13H34.645V126.09Z" fill="white"/>
<path d="M30 189C25.0294 189 21 193.029 21 198C21 202.971 25.0294 207 30 207C34.9706 207 39 202.971 39 198C39 193.029 34.9706 189 30 189Z" stroke="white" stroke-width="1.5" stroke-linecap="round" stroke-linejoin="round"/>
<path d="M27 197L30 200L33 197" stroke="white" stroke-width="1.5" stroke-linecap="round" stroke-linejoin="round"/>
<path d="M30 239C30.7956 239 31.5587 238.684 32.1213 238.121C32.6839 237.559 33 236.796 33 236C33 235.204 32.6839 234.441 32.1213 233.879C31.5587 233.316 30.7956 233 30 233C29.2044 233 28.4413 233.316 27.8787 233.879C27.3161 234.441 27 235.204 27 236C27 236.796 27.3161 237.559 27.8787 238.121C28.4413 238.684 29.2044 239 30 239ZM30 230C29.2121 230 28.4319 230.155 27.7039 230.457C26.9759 230.758 26.3145 231.2 25.7574 231.757C25.2002 232.315 24.7583 232.976 24.4567 233.704C24.1552 234.432 24 235.212 24 236C24 236.788 24.1552 237.568 24.4567 238.296C24.7583 239.024 25.2002 239.685 25.7574 240.243C26.3145 240.8 26.9759 241.242 27.7039 241.543C28.4319 241.845 29.2121 242 30 242C31.5913 242 33.1174 241.368 34.2426 240.243C35.3679 239.117 36 237.591 36 236C36 234.409 35.3679 232.883 34.2426 231.757C33.1174 230.632 31.5913 230 30 230ZM25 236C25 234.674 25.5268 233.402 26.4645 232.464C27.4021 231.527 28.6739 231 30 231C31.3261 231 32.5979 231.527 33.5355 232.464C34.4732 233.402 35 234.674 35 236C35 237.326 34.4732 238.598 33.5355 239.536C32.5979 240.473 31.3261 241 30 241C28.6739 241 27.4021 240.473 26.4645 239.536C25.5268 238.598 25 237.326 25 236Z" fill="white"/>
<path d="M26 267V269.5H23V267H26ZM21 265.333V271.167H28V265.333H21ZM31 265.333H39V267H31V265.333ZM31 271.167H39V272.833H31V271.167ZM31 277H39V278.667H31V277ZM28.707 275.506L27.293 274.327L24 277.072L22.207 275.577L20.793 276.756L24 279.428L28.707 275.506Z" fill="white"/>
<g clip-path="url(#clip0_19_1593)">
<path d="M36.5 168H23.5C22.67 168 22 167.33 22 166.5V154.5C22 153.67 22.67 153 23.5 153H36.5C37.33 153 38 153.67 38 154.5V166.5C38 167.33 37.33 168 36.5 168ZM23.5 154C23.22 154 23 154.22 23 154.5V166.5C23 166.78 23.22 167 23.5 167H36.5C36.78 167 37 166.78 37 166.5V154.5C37 154.22 36.78 154 36.5 154H23.5Z" fill="white"/>
<path d="M26.5 156C26.22 156 26 155.78 26 155.5V152.5C26 152.22 26.22 152 26.5 152C26.78 152 27 152.22 27 152.5V155.5C27 155.78 26.78 156 26.5 156ZM33.5 156C33.22 156 33 155.78 33 155.5V152.5C33 152.22 33.22 152 33.5 152C33.78 152 34 152.22 34 152.5V155.5C34 155.78 33.78 156 33.5 156ZM37.5 158H22.5C22.22 158 22 157.78 22 157.5C22 157.22 22.22 157 22.5 157H37.5C37.78 157 38 157.22 38 157.5C38 157.78 37.78 158 37.5 158Z" fill="white"/>
</g>
<rect x="106.15" y="267.15" width="23.7" height="23.7" rx="2.85" fill="#0C0C0C"/>
<rect x="106.15" y="267.15" width="23.7" height="23.7" rx="2.85" stroke="#303030" stroke-width="0.3"/>
<path d="M113 275H123M113 279H123M113 283H117.286" stroke="white" stroke-width="2" stroke-linecap="round" stroke-linejoin="round"/>
<path d="M94.7045 307V301.182H95.4091V306.375H98.1136V307H94.7045ZM100.886 307.091C100.492 307.091 100.147 306.997 99.8494 306.81C99.554 306.622 99.3229 306.36 99.1562 306.023C98.9915 305.686 98.9091 305.292 98.9091 304.841C98.9091 304.386 98.9915 303.99 99.1562 303.651C99.3229 303.312 99.554 303.048 99.8494 302.861C100.147 302.673 100.492 302.58 100.886 302.58C101.28 302.58 101.625 302.673 101.92 302.861C102.218 303.048 102.449 303.312 102.614 303.651C102.78 303.99 102.864 304.386 102.864 304.841C102.864 305.292 102.78 305.686 102.614 306.023C102.449 306.36 102.218 306.622 101.92 306.81C101.625 306.997 101.28 307.091 100.886 307.091ZM100.886 306.489C101.186 306.489 101.432 306.412 101.625 306.259C101.818 306.105 101.961 305.903 102.054 305.653C102.147 305.403 102.193 305.133 102.193 304.841C102.193 304.549 102.147 304.277 102.054 304.026C101.961 303.774 101.818 303.57 101.625 303.415C101.432 303.259 101.186 303.182 100.886 303.182C100.587 303.182 100.341 303.259 100.148 303.415C99.9545 303.57 99.8116 303.774 99.7188 304.026C99.6259 304.277 99.5795 304.549 99.5795 304.841C99.5795 305.133 99.6259 305.403 99.7188 305.653C99.8116 305.903 99.9545 306.105 100.148 306.259C100.341 306.412 100.587 306.489 100.886 306.489ZM104.558 304.375V307H103.887V302.636H104.535V303.318H104.592C104.694 303.097 104.849 302.919 105.058 302.784C105.266 302.648 105.535 302.58 105.864 302.58C106.16 302.58 106.418 302.64 106.64 302.761C106.862 302.881 107.034 303.062 107.157 303.307C107.28 303.549 107.342 303.856 107.342 304.227V307H106.671V304.273C106.671 303.93 106.582 303.663 106.404 303.472C106.226 303.278 105.982 303.182 105.671 303.182C105.457 303.182 105.266 303.228 105.097 303.321C104.931 303.414 104.799 303.549 104.702 303.727C104.606 303.905 104.558 304.121 104.558 304.375ZM110.328 308.727C110.004 308.727 109.726 308.686 109.493 308.602C109.26 308.521 109.066 308.413 108.911 308.278C108.757 308.146 108.635 308.004 108.544 307.852L109.078 307.477C109.139 307.557 109.215 307.648 109.308 307.75C109.401 307.854 109.528 307.944 109.689 308.02C109.852 308.098 110.065 308.136 110.328 308.136C110.68 308.136 110.971 308.051 111.2 307.881C111.429 307.71 111.544 307.443 111.544 307.08V306.193H111.487C111.438 306.273 111.368 306.371 111.277 306.489C111.188 306.604 111.059 306.707 110.891 306.798C110.724 306.887 110.499 306.932 110.214 306.932C109.862 306.932 109.546 306.848 109.266 306.682C108.987 306.515 108.767 306.273 108.604 305.955C108.443 305.636 108.362 305.25 108.362 304.795C108.362 304.348 108.441 303.959 108.598 303.628C108.755 303.295 108.974 303.037 109.254 302.855C109.535 302.671 109.858 302.58 110.226 302.58C110.51 302.58 110.735 302.627 110.902 302.722C111.071 302.814 111.199 302.92 111.288 303.04C111.379 303.157 111.449 303.254 111.499 303.33H111.567V302.636H112.214V307.125C112.214 307.5 112.129 307.805 111.959 308.04C111.79 308.277 111.563 308.45 111.277 308.56C110.993 308.671 110.677 308.727 110.328 308.727ZM110.305 306.33C110.574 306.33 110.802 306.268 110.987 306.145C111.173 306.022 111.314 305.845 111.411 305.614C111.507 305.383 111.555 305.106 111.555 304.784C111.555 304.47 111.508 304.192 111.413 303.952C111.319 303.711 111.179 303.523 110.993 303.386C110.807 303.25 110.578 303.182 110.305 303.182C110.021 303.182 109.785 303.254 109.595 303.398C109.408 303.542 109.267 303.735 109.172 303.977C109.079 304.22 109.033 304.489 109.033 304.784C109.033 305.087 109.08 305.355 109.175 305.588C109.271 305.819 109.413 306.001 109.601 306.134C109.79 306.264 110.025 306.33 110.305 306.33ZM116.976 307.102C116.699 307.102 116.448 307.05 116.223 306.946C115.998 306.84 115.819 306.688 115.686 306.489C115.554 306.288 115.487 306.045 115.487 305.761C115.487 305.511 115.536 305.309 115.635 305.153C115.733 304.996 115.865 304.873 116.03 304.784C116.195 304.695 116.376 304.629 116.575 304.585C116.776 304.54 116.978 304.504 117.18 304.477C117.446 304.443 117.661 304.418 117.825 304.401C117.992 304.382 118.113 304.35 118.189 304.307C118.267 304.263 118.305 304.187 118.305 304.08V304.057C118.305 303.777 118.229 303.559 118.075 303.403C117.924 303.248 117.694 303.17 117.385 303.17C117.065 303.17 116.814 303.241 116.632 303.381C116.45 303.521 116.322 303.67 116.249 303.83L115.612 303.602C115.726 303.337 115.877 303.131 116.067 302.983C116.258 302.833 116.466 302.729 116.692 302.67C116.919 302.61 117.143 302.58 117.362 302.58C117.502 302.58 117.663 302.597 117.845 302.631C118.029 302.663 118.206 302.73 118.376 302.832C118.549 302.935 118.692 303.089 118.805 303.295C118.919 303.502 118.976 303.778 118.976 304.125V307H118.305V306.409H118.271C118.226 306.504 118.15 306.605 118.044 306.713C117.938 306.821 117.797 306.913 117.621 306.989C117.445 307.064 117.23 307.102 116.976 307.102ZM117.078 306.5C117.343 306.5 117.567 306.448 117.749 306.344C117.932 306.24 118.071 306.105 118.163 305.94C118.258 305.776 118.305 305.602 118.305 305.42V304.807C118.277 304.841 118.214 304.872 118.118 304.901C118.023 304.927 117.913 304.951 117.788 304.972C117.665 304.991 117.545 305.008 117.428 305.023C117.312 305.036 117.218 305.047 117.146 305.057C116.972 305.08 116.809 305.116 116.658 305.168C116.508 305.217 116.387 305.292 116.294 305.392C116.203 305.491 116.158 305.625 116.158 305.795C116.158 306.028 116.244 306.205 116.416 306.324C116.59 306.441 116.811 306.5 117.078 306.5ZM120.87 304.375V307H120.2V302.636H120.847V303.318H120.904C121.006 303.097 121.162 302.919 121.37 302.784C121.578 302.648 121.847 302.58 122.177 302.58C122.472 302.58 122.731 302.64 122.952 302.761C123.174 302.881 123.346 303.062 123.469 303.307C123.593 303.549 123.654 303.856 123.654 304.227V307H122.984V304.273C122.984 303.93 122.895 303.663 122.717 303.472C122.539 303.278 122.294 303.182 121.984 303.182C121.77 303.182 121.578 303.228 121.41 303.321C121.243 303.414 121.112 303.549 121.015 303.727C120.918 303.905 120.87 304.121 120.87 304.375ZM127.97 303.614L127.368 303.784C127.33 303.684 127.274 303.586 127.2 303.491C127.128 303.395 127.03 303.315 126.905 303.253C126.78 303.19 126.62 303.159 126.425 303.159C126.158 303.159 125.935 303.221 125.757 303.344C125.581 303.465 125.493 303.619 125.493 303.807C125.493 303.973 125.554 304.105 125.675 304.202C125.796 304.298 125.985 304.379 126.243 304.443L126.891 304.602C127.281 304.697 127.571 304.842 127.763 305.037C127.954 305.23 128.05 305.479 128.05 305.784C128.05 306.034 127.978 306.258 127.834 306.455C127.692 306.652 127.493 306.807 127.237 306.92C126.982 307.034 126.684 307.091 126.345 307.091C125.9 307.091 125.532 306.994 125.24 306.801C124.948 306.608 124.764 306.326 124.686 305.955L125.322 305.795C125.383 306.03 125.498 306.206 125.666 306.324C125.837 306.441 126.059 306.5 126.334 306.5C126.646 306.5 126.894 306.434 127.078 306.301C127.264 306.167 127.357 306.006 127.357 305.818C127.357 305.667 127.304 305.54 127.197 305.438C127.091 305.333 126.929 305.256 126.709 305.205L125.982 305.034C125.582 304.939 125.288 304.793 125.101 304.594C124.915 304.393 124.822 304.142 124.822 303.841C124.822 303.595 124.892 303.377 125.03 303.188C125.17 302.998 125.36 302.849 125.601 302.741C125.843 302.634 126.118 302.58 126.425 302.58C126.857 302.58 127.196 302.674 127.442 302.864C127.69 303.053 127.866 303.303 127.97 303.614ZM130.048 307L128.718 302.636H129.423L130.366 305.977H130.411L131.343 302.636H132.059L132.979 305.966H133.025L133.968 302.636H134.673L133.343 307H132.684L131.729 303.648H131.661L130.707 307H130.048ZM137.24 307.091C136.82 307.091 136.457 306.998 136.152 306.812C135.849 306.625 135.615 306.364 135.45 306.028C135.287 305.691 135.206 305.299 135.206 304.852C135.206 304.405 135.287 304.011 135.45 303.67C135.615 303.328 135.844 303.061 136.138 302.869C136.433 302.676 136.778 302.58 137.172 302.58C137.399 302.58 137.624 302.617 137.845 302.693C138.067 302.769 138.268 302.892 138.45 303.062C138.632 303.231 138.777 303.455 138.885 303.733C138.993 304.011 139.047 304.354 139.047 304.761V305.045H135.683V304.466H138.365C138.365 304.22 138.316 304 138.217 303.807C138.121 303.614 137.982 303.461 137.803 303.349C137.625 303.238 137.414 303.182 137.172 303.182C136.905 303.182 136.674 303.248 136.479 303.381C136.286 303.511 136.137 303.682 136.033 303.892C135.929 304.102 135.876 304.328 135.876 304.568V304.955C135.876 305.284 135.933 305.563 136.047 305.793C136.162 306.02 136.322 306.193 136.527 306.312C136.732 306.43 136.969 306.489 137.24 306.489C137.416 306.489 137.575 306.464 137.717 306.415C137.861 306.364 137.985 306.288 138.089 306.188C138.194 306.085 138.274 305.958 138.331 305.807L138.979 305.989C138.911 306.208 138.796 306.402 138.635 306.568C138.474 306.733 138.275 306.862 138.038 306.955C137.802 307.045 137.536 307.091 137.24 307.091ZM140.067 307V302.636H140.714V303.295H140.76C140.839 303.08 140.983 302.904 141.192 302.77C141.4 302.635 141.635 302.568 141.896 302.568C141.946 302.568 142.007 302.569 142.081 302.571C142.155 302.573 142.211 302.576 142.249 302.58V303.261C142.226 303.256 142.174 303.247 142.092 303.236C142.013 303.223 141.929 303.216 141.839 303.216C141.627 303.216 141.438 303.26 141.271 303.349C141.107 303.437 140.976 303.558 140.879 303.713C140.785 303.866 140.737 304.042 140.737 304.239V307H140.067Z" fill="#B0B0B0"/>
<path d="M107.096 286.607C106.886 286.548 106.667 286.521 106.448 286.526C106.542 285.835 105.965 285.12 105.049 284.85C104.774 284.759 104.483 284.722 104.194 284.743C104.115 284.402 103.941 284.091 103.694 283.843C103.446 283.596 103.134 283.424 102.794 283.345C102.505 283.245 102.197 283.216 101.895 283.26C101.593 283.304 101.305 283.419 101.057 283.597C100.806 283.326 100.485 283.129 100.13 283.028C99.714 282.874 99.2544 282.89 98.8499 283.072C98.4454 283.254 98.1283 283.587 97.9665 284L97.8235 284.484C97.1957 284.531 95.3504 284.797 94.4462 286.291C93.5419 287.785 93.3694 290.607 94.0272 292.991C94.4816 294.552 95.2043 296.022 96.163 297.334C96.2277 297.418 96.3172 297.479 96.4187 297.508L101.928 299.134C102.035 299.164 102.148 299.159 102.251 299.119C103.468 298.52 104.494 297.593 105.213 296.443C106.304 294.971 107.103 293.303 107.567 291.53L108.431 288.6C108.514 288.159 108.421 287.703 108.171 287.33C107.922 286.957 107.536 286.698 107.096 286.607ZM106.607 291.247C106.176 292.925 105.421 294.502 104.385 295.891C103.786 296.811 102.977 297.575 102.025 298.12L96.8402 296.59C96.01 295.412 95.3779 294.106 94.9689 292.725C94.313 290.295 94.6645 287.868 95.2812 286.798C95.5442 286.442 95.8789 286.146 96.2637 285.927C96.6485 285.708 97.0748 285.573 97.5153 285.529L96.3123 289.605C96.2748 289.732 96.2893 289.869 96.3527 289.986C96.4161 290.102 96.5232 290.189 96.6504 290.226C96.7776 290.264 96.9145 290.249 97.0309 290.186C97.1474 290.122 97.2339 290.015 97.2715 289.888L98.9256 284.283C98.9996 284.032 99.3973 283.843 99.8608 283.979C100.324 284.116 100.573 284.491 100.498 284.746L99.5981 287.794L100.557 288.077L101.626 284.454C101.67 284.305 102.047 284.167 102.516 284.305C102.985 284.444 103.256 284.802 103.213 284.946L102.13 288.617L103.089 288.9L103.992 285.841L104.101 285.804C104.324 285.742 104.56 285.747 104.78 285.819C105.276 285.965 105.51 286.289 105.472 286.417L104.45 289.881L105.415 290.165L106.181 287.57C106.392 287.502 106.618 287.503 106.829 287.571C107.288 287.706 107.559 288.081 107.491 288.311L106.607 291.247Z" fill="white"/>
<path d="M144.745 278.082C161.779 280.902 191.036 288.434 196.351 264.786C197.653 258.993 195.545 254.265 193.585 248.927C193.5 248.696 190.682 243.671 190.427 244.433C189.744 246.474 185.535 258.441 188.19 250.656C188.471 249.833 189.433 243.919 190.29 243.604C192.625 242.747 201.511 249.227 203.899 250.332" stroke="white" stroke-linecap="round"/>
<defs>
<clipPath id="clip0_19_1593">
<rect width="16" height="16" fill="white" transform="translate(22 152)"/>
</clipPath>
</defs>
</svg>
