<svg width="569" height="364" viewBox="0 0 569 364" fill="none" xmlns="http://www.w3.org/2000/svg">
<rect x="26.25" y="32.25" width="315.5" height="141.5" rx="5.75" stroke="#CDCDCD" stroke-width="0.5"/>
<circle cx="40" cy="45" r="4" fill="#5B5B5B"/>
<circle cx="53" cy="45" r="4" fill="#807F7F"/>
<circle cx="66" cy="45" r="4" fill="#CDCDCD"/>
<mask id="path-5-inside-1_20_1705" fill="white">
<path d="M36 74H298C301.314 74 304 76.6863 304 80V103H36V74Z"/>
</mask>
<path d="M36 73.5H298C301.59 73.5 304.5 76.4101 304.5 80H303.5C303.5 76.9624 301.038 74.5 298 74.5H36V73.5ZM304.5 103.5H36V102.5H303.5L304.5 103.5ZM36 103V74V103ZM298 73.5C301.59 73.5 304.5 76.4101 304.5 80V103.5L303.5 102.5V80C303.5 76.9624 301.038 74.5 298 74.5V73.5Z" fill="#CDCDCD" mask="url(#path-5-inside-1_20_1705)"/>
<rect x="248" y="80" width="45" height="16" rx="3" fill="black"/>
<g clip-path="url(#clip0_20_1705)">
<path d="M260.945 85.0547C260.971 85.0807 260.989 85.1137 260.996 85.1497C261.004 85.1857 261 85.2231 260.987 85.2572L258.804 90.7123C258.785 90.7604 258.753 90.8022 258.712 90.8331C258.67 90.8641 258.621 90.883 258.569 90.8878C258.518 90.8926 258.466 90.8831 258.42 90.8604C258.373 90.8376 258.334 90.8025 258.306 90.7588L257.114 88.8857L255.241 87.6939C255.197 87.6662 255.162 87.6269 255.139 87.5804C255.117 87.5338 255.107 87.4819 255.112 87.4303C255.117 87.3787 255.136 87.3295 255.167 87.288C255.198 87.2465 255.24 87.2144 255.288 87.1952L260.743 85.0138C260.777 85.0001 260.814 84.9967 260.85 85.004C260.886 85.0114 260.919 85.0291 260.945 85.0551V85.0547ZM257.489 88.7762L258.524 90.4029L260.299 85.9659L257.489 88.7762ZM260.034 85.7008L255.597 87.4757L257.224 88.5107L260.034 85.7008Z" fill="white"/>
</g>
<path d="M264.479 90V85.6364H266.035C266.374 85.6364 266.656 85.6982 266.879 85.8217C267.102 85.9453 267.268 86.1143 267.379 86.3288C267.49 86.5419 267.545 86.782 267.545 87.049C267.545 87.3175 267.489 87.5589 267.377 87.7734C267.266 87.9865 267.099 88.1555 266.874 88.2805C266.651 88.4041 266.371 88.4659 266.033 88.4659H264.963V87.9077H265.973C266.188 87.9077 266.362 87.8707 266.495 87.7969C266.629 87.7216 266.727 87.6193 266.789 87.4901C266.852 87.3608 266.883 87.2138 266.883 87.049C266.883 86.8842 266.852 86.7379 266.789 86.6101C266.727 86.4822 266.628 86.3821 266.493 86.3097C266.359 86.2372 266.183 86.201 265.964 86.201H265.138V90H264.479ZM270.339 88.6428V86.7273H270.979V90H270.352V89.4332H270.318C270.243 89.608 270.122 89.7536 269.956 89.87C269.791 89.9851 269.586 90.0426 269.34 90.0426C269.13 90.0426 268.944 89.9964 268.782 89.9041C268.621 89.8104 268.495 89.6719 268.403 89.4886C268.312 89.3054 268.266 89.0788 268.266 88.8089V86.7273H268.903V88.7322C268.903 88.9553 268.965 89.1328 269.089 89.2649C269.212 89.397 269.373 89.4631 269.57 89.4631C269.689 89.4631 269.808 89.4332 269.926 89.3736C270.045 89.3139 270.144 89.2237 270.222 89.103C270.302 88.9822 270.341 88.8288 270.339 88.6428ZM271.886 90V85.6364H272.523V87.2578H272.561C272.598 87.1896 272.651 87.1108 272.721 87.0213C272.79 86.9318 272.887 86.8537 273.011 86.7869C273.134 86.7188 273.298 86.6847 273.501 86.6847C273.765 86.6847 274.001 86.7514 274.208 86.8849C274.415 87.0185 274.578 87.2109 274.696 87.4624C274.815 87.7138 274.875 88.0163 274.875 88.37C274.875 88.7237 274.816 89.027 274.698 89.2798C274.58 89.5312 274.418 89.7251 274.212 89.8615C274.006 89.9964 273.771 90.0639 273.507 90.0639C273.308 90.0639 273.146 90.0305 273.019 89.9638C272.894 89.897 272.796 89.8189 272.725 89.7294C272.654 89.6399 272.599 89.5604 272.561 89.4908H272.508V90H271.886ZM272.51 88.3636C272.51 88.5937 272.543 88.7955 272.61 88.9688C272.677 89.142 272.773 89.2777 272.9 89.3757C273.026 89.4723 273.181 89.5206 273.364 89.5206C273.555 89.5206 273.714 89.4702 273.842 89.3693C273.969 89.267 274.066 89.1286 274.131 88.9538C274.198 88.7791 274.232 88.5824 274.232 88.3636C274.232 88.1477 274.199 87.9538 274.134 87.782C274.07 87.6101 273.973 87.4744 273.844 87.375C273.716 87.2756 273.556 87.2259 273.364 87.2259C273.18 87.2259 273.023 87.2734 272.896 87.3686C272.769 87.4638 272.673 87.5966 272.608 87.767C272.543 87.9375 272.51 88.1364 272.51 88.3636ZM276.227 85.6364V90H275.59V85.6364H276.227ZM277.085 90V86.7273H277.722V90H277.085ZM277.406 86.2223C277.295 86.2223 277.2 86.1854 277.121 86.1115C277.043 86.0362 277.004 85.9467 277.004 85.843C277.004 85.7379 277.043 85.6484 277.121 85.5746C277.2 85.4993 277.295 85.4616 277.406 85.4616C277.517 85.4616 277.612 85.4993 277.69 85.5746C277.769 85.6484 277.809 85.7379 277.809 85.843C277.809 85.9467 277.769 86.0362 277.69 86.1115C277.612 86.1854 277.517 86.2223 277.406 86.2223ZM281.031 87.5263L280.454 87.6286C280.43 87.5547 280.391 87.4844 280.339 87.4176C280.287 87.3509 280.218 87.2962 280.13 87.2536C280.042 87.2109 279.932 87.1896 279.8 87.1896C279.619 87.1896 279.469 87.2301 279.348 87.3111C279.227 87.3906 279.167 87.4936 279.167 87.62C279.167 87.7294 279.207 87.8175 279.288 87.8842C279.369 87.951 279.5 88.0057 279.68 88.0483L280.2 88.1676C280.501 88.2372 280.726 88.3445 280.873 88.4893C281.021 88.6342 281.095 88.8224 281.095 89.054C281.095 89.25 281.038 89.4247 280.925 89.5781C280.812 89.7301 280.655 89.8494 280.454 89.9361C280.253 90.0227 280.021 90.0661 279.757 90.0661C279.39 90.0661 279.091 89.9879 278.86 89.8317C278.628 89.674 278.486 89.4503 278.434 89.1605L279.05 89.0668C279.088 89.2273 279.167 89.3487 279.286 89.4311C279.405 89.5121 279.561 89.5526 279.753 89.5526C279.961 89.5526 280.128 89.5092 280.253 89.4226C280.378 89.3345 280.441 89.2273 280.441 89.1009C280.441 88.9986 280.403 88.9126 280.326 88.843C280.251 88.7734 280.135 88.7209 279.979 88.6854L279.425 88.5639C279.119 88.4943 278.893 88.3835 278.747 88.2315C278.602 88.0795 278.53 87.8871 278.53 87.6541C278.53 87.4609 278.584 87.2919 278.692 87.147C278.8 87.0021 278.949 86.8892 279.139 86.8082C279.329 86.7259 279.547 86.6847 279.793 86.6847C280.147 86.6847 280.425 86.7614 280.628 86.9148C280.831 87.0668 280.966 87.2706 281.031 87.5263ZM282.433 88.0568V90H281.795V85.6364H282.424V87.2599H282.464C282.541 87.0838 282.658 86.9439 282.816 86.8402C282.974 86.7365 283.18 86.6847 283.434 86.6847C283.658 86.6847 283.854 86.7308 284.022 86.8232C284.191 86.9155 284.322 87.0533 284.414 87.2365C284.508 87.4183 284.555 87.6456 284.555 87.9183V90H283.918V87.995C283.918 87.755 283.856 87.5689 283.732 87.4368C283.609 87.3033 283.437 87.2365 283.217 87.2365C283.066 87.2365 282.931 87.2685 282.812 87.3324C282.694 87.3963 282.601 87.4901 282.533 87.6136C282.466 87.7358 282.433 87.8835 282.433 88.0568Z" fill="white"/>
<g clip-path="url(#clip1_20_1705)">
<path d="M214.8 85.75C214.932 85.7519 215.058 85.8058 215.15 85.9L216.1 86.85C216.194 86.9423 216.248 87.0681 216.25 87.2V89.75C216.25 89.8826 216.197 90.0098 216.104 90.1036C216.01 90.1973 215.883 90.25 215.75 90.25H212.25C212.117 90.25 211.99 90.1973 211.896 90.1036C211.803 90.0098 211.75 89.8826 211.75 89.75V86.25C211.75 86.1174 211.803 85.9902 211.896 85.8964C211.99 85.8027 212.117 85.75 212.25 85.75H214.8Z" stroke="black" stroke-width="0.5" stroke-linecap="round" stroke-linejoin="round"/>
<path d="M215.25 90.25V88.5C215.25 88.4337 215.224 88.3701 215.177 88.3232C215.13 88.2763 215.066 88.25 215 88.25H213C212.934 88.25 212.87 88.2763 212.823 88.3232C212.776 88.3701 212.75 88.4337 212.75 88.5V90.25M212.75 85.75V86.75C212.75 86.8163 212.776 86.8799 212.823 86.9268C212.87 86.9737 212.934 87 213 87H214.75" stroke="black" stroke-width="0.5" stroke-linecap="round" stroke-linejoin="round"/>
</g>
<path d="M222.859 86.7827C222.837 86.581 222.743 86.4247 222.578 86.3139C222.413 86.2017 222.206 86.1456 221.956 86.1456C221.777 86.1456 221.622 86.174 221.491 86.2308C221.361 86.2862 221.259 86.3629 221.187 86.4609C221.116 86.5575 221.08 86.6676 221.08 86.7912C221.08 86.8949 221.104 86.9844 221.153 87.0597C221.202 87.1349 221.267 87.1982 221.347 87.2493C221.428 87.299 221.514 87.3409 221.607 87.375C221.699 87.4077 221.788 87.4347 221.873 87.456L222.299 87.5668C222.438 87.6009 222.581 87.647 222.727 87.7053C222.874 87.7635 223.009 87.8402 223.134 87.9354C223.259 88.0305 223.36 88.1484 223.437 88.2891C223.515 88.4297 223.554 88.598 223.554 88.794C223.554 89.0412 223.49 89.2607 223.362 89.4524C223.236 89.6442 223.052 89.7955 222.81 89.9062C222.57 90.017 222.28 90.0724 221.939 90.0724C221.612 90.0724 221.33 90.0206 221.091 89.9169C220.852 89.8132 220.665 89.6662 220.531 89.4759C220.396 89.2841 220.321 89.0568 220.307 88.794H220.967C220.98 88.9517 221.031 89.0831 221.121 89.1882C221.212 89.2919 221.327 89.3693 221.468 89.4205C221.61 89.4702 221.766 89.495 221.935 89.495C222.121 89.495 222.286 89.4659 222.431 89.4077C222.577 89.348 222.692 89.2656 222.776 89.1605C222.86 89.054 222.902 88.9297 222.902 88.7876C222.902 88.6584 222.865 88.5526 222.791 88.4702C222.719 88.3878 222.62 88.3196 222.495 88.2656C222.371 88.2116 222.232 88.1641 222.075 88.1229L221.56 87.9822C221.21 87.8871 220.933 87.7472 220.729 87.5625C220.526 87.3778 220.424 87.1335 220.424 86.8295C220.424 86.5781 220.492 86.3587 220.629 86.1712C220.765 85.9837 220.95 85.8381 221.183 85.7344C221.415 85.6293 221.678 85.5767 221.971 85.5767C222.266 85.5767 222.527 85.6286 222.753 85.7322C222.98 85.8359 223.159 85.9787 223.29 86.1605C223.42 86.3409 223.489 86.5483 223.494 86.7827H222.859ZM225.242 90.0724C225.035 90.0724 224.847 90.0341 224.68 89.9574C224.512 89.8793 224.379 89.7663 224.281 89.6186C224.184 89.4709 224.136 89.2898 224.136 89.0753C224.136 88.8906 224.172 88.7386 224.243 88.6193C224.314 88.5 224.41 88.4055 224.53 88.3359C224.651 88.2663 224.786 88.2138 224.935 88.1783C225.084 88.1428 225.236 88.1158 225.391 88.0973C225.587 88.0746 225.746 88.0561 225.868 88.0419C225.991 88.0263 226.079 88.0014 226.135 87.9673C226.19 87.9332 226.218 87.8778 226.218 87.8011V87.7862C226.218 87.6001 226.165 87.456 226.06 87.3537C225.956 87.2514 225.802 87.2003 225.596 87.2003C225.381 87.2003 225.212 87.2479 225.089 87.343C224.966 87.4368 224.882 87.5412 224.835 87.6562L224.236 87.5199C224.307 87.321 224.411 87.1605 224.547 87.0384C224.685 86.9148 224.844 86.8253 225.023 86.7699C225.202 86.7131 225.39 86.6847 225.587 86.6847C225.718 86.6847 225.856 86.7003 226.003 86.7315C226.15 86.7614 226.288 86.8168 226.416 86.8977C226.545 86.9787 226.651 87.0945 226.733 87.245C226.816 87.3942 226.857 87.5881 226.857 87.8267V90H226.235V89.5526H226.209C226.168 89.6349 226.106 89.7159 226.024 89.7955C225.942 89.875 225.836 89.9411 225.706 89.9936C225.577 90.0462 225.422 90.0724 225.242 90.0724ZM225.381 89.5611C225.557 89.5611 225.707 89.5263 225.832 89.4567C225.959 89.3871 226.055 89.2962 226.12 89.1839C226.187 89.0703 226.22 88.9489 226.22 88.8196V88.3977C226.197 88.4205 226.153 88.4418 226.088 88.4616C226.024 88.4801 225.951 88.4964 225.868 88.5107C225.786 88.5234 225.706 88.5355 225.628 88.5469C225.55 88.5568 225.484 88.5653 225.432 88.5724C225.308 88.5881 225.195 88.6143 225.093 88.6513C224.992 88.6882 224.911 88.7415 224.85 88.8111C224.79 88.8793 224.76 88.9702 224.76 89.0838C224.76 89.2415 224.819 89.3608 224.935 89.4418C225.052 89.5213 225.2 89.5611 225.381 89.5611ZM230.388 86.7273L229.201 90H228.52L227.331 86.7273H228.015L228.843 89.2457H228.877L229.704 86.7273H230.388ZM232.286 90.0661C231.964 90.0661 231.686 89.9972 231.453 89.8594C231.221 89.7202 231.042 89.5249 230.916 89.2734C230.791 89.0206 230.729 88.7244 230.729 88.3849C230.729 88.0497 230.791 87.7543 230.916 87.4986C231.042 87.2429 231.219 87.0433 231.444 86.8999C231.672 86.7564 231.937 86.6847 232.241 86.6847C232.426 86.6847 232.605 86.7152 232.778 86.7763C232.952 86.8374 233.107 86.9332 233.245 87.0639C233.383 87.1946 233.491 87.3643 233.571 87.5732C233.65 87.7805 233.69 88.0327 233.69 88.3295V88.5554H231.089V88.0781H233.066C233.066 87.9105 233.032 87.7621 232.964 87.6328C232.895 87.5021 232.8 87.3991 232.676 87.3239C232.554 87.2486 232.41 87.2109 232.246 87.2109C232.067 87.2109 231.91 87.255 231.777 87.343C231.645 87.4297 231.542 87.5433 231.47 87.6839C231.399 87.8232 231.363 87.9744 231.363 88.1378V88.5107C231.363 88.7294 231.402 88.9155 231.479 89.0689C231.557 89.2223 231.665 89.3395 231.805 89.4205C231.944 89.5 232.106 89.5398 232.292 89.5398C232.413 89.5398 232.523 89.5227 232.623 89.4886C232.722 89.4531 232.808 89.4006 232.881 89.331C232.953 89.2614 233.008 89.1754 233.047 89.0732L233.65 89.1818C233.601 89.3594 233.515 89.5149 233.39 89.6484C233.266 89.7805 233.111 89.8835 232.923 89.9574C232.737 90.0298 232.525 90.0661 232.286 90.0661Z" fill="black"/>
<rect x="205.25" y="80.25" width="34.5" height="15.5" rx="2.75" stroke="#CDCDCD" stroke-width="0.5"/>
<rect x="152.25" y="80.25" width="44.5" height="15.5" rx="2.75" stroke="#CDCDCD" stroke-width="0.5"/>
<path d="M163.796 87.9241C163.788 87.9055 163.59 87.4652 163.148 87.0238C162.56 86.4358 161.817 86.125 161 86.125C160.182 86.125 159.44 86.4358 158.852 87.0238C158.41 87.4652 158.211 87.9063 158.204 87.9241C158.193 87.948 158.188 87.974 158.188 88.0002C158.188 88.0265 158.193 88.0524 158.204 88.0764C158.212 88.0949 158.41 88.5351 158.852 88.9764C159.44 89.5642 160.182 89.875 161 89.875C161.817 89.875 162.56 89.5642 163.148 88.9764C163.59 88.5351 163.788 88.0949 163.796 88.0764C163.807 88.0524 163.812 88.0265 163.812 88.0002C163.812 87.974 163.807 87.948 163.796 87.9241ZM161 89.5C160.279 89.5 159.648 89.2377 159.127 88.7207C158.913 88.5078 158.73 88.2651 158.586 88C158.73 87.7349 158.913 87.4921 159.127 87.2793C159.648 86.7623 160.279 86.5 161 86.5C161.721 86.5 162.352 86.7623 162.873 87.2793C163.088 87.4921 163.27 87.7349 163.415 88C163.246 88.3155 162.51 89.5 161 89.5ZM161 86.875C160.777 86.875 160.56 86.941 160.375 87.0646C160.19 87.1882 160.046 87.3639 159.961 87.5695C159.875 87.775 159.853 88.0012 159.897 88.2195C159.94 88.4377 160.047 88.6382 160.205 88.7955C160.362 88.9528 160.562 89.06 160.781 89.1034C160.999 89.1468 161.225 89.1245 161.431 89.0394C161.636 88.9542 161.812 88.81 161.935 88.625C162.059 88.44 162.125 88.2225 162.125 88C162.125 87.7017 162.006 87.4158 161.795 87.2048C161.584 86.9939 161.298 86.8753 161 86.875ZM161 88.75C160.852 88.75 160.707 88.706 160.583 88.6236C160.46 88.5412 160.364 88.4241 160.307 88.287C160.25 88.15 160.235 87.9992 160.264 87.8537C160.293 87.7082 160.365 87.5746 160.47 87.4697C160.575 87.3648 160.708 87.2933 160.854 87.2644C160.999 87.2355 161.15 87.2503 161.287 87.3071C161.424 87.3639 161.541 87.46 161.624 87.5833C161.706 87.7067 161.75 87.8517 161.75 88C161.75 88.1989 161.671 88.3897 161.53 88.5303C161.39 88.671 161.199 88.75 161 88.75Z" fill="black"/>
<path d="M167.479 90V85.6364H169.035C169.374 85.6364 169.656 85.6982 169.879 85.8217C170.102 85.9453 170.268 86.1143 170.379 86.3288C170.49 86.5419 170.545 86.782 170.545 87.049C170.545 87.3175 170.489 87.5589 170.377 87.7734C170.266 87.9865 170.099 88.1555 169.874 88.2805C169.651 88.4041 169.371 88.4659 169.033 88.4659H167.963V87.9077H168.973C169.188 87.9077 169.362 87.8707 169.495 87.7969C169.629 87.7216 169.727 87.6193 169.789 87.4901C169.852 87.3608 169.883 87.2138 169.883 87.049C169.883 86.8842 169.852 86.7379 169.789 86.6101C169.727 86.4822 169.628 86.3821 169.493 86.3097C169.359 86.2372 169.183 86.201 168.964 86.201H168.138V90H167.479ZM171.266 90V86.7273H171.882V87.2472H171.916C171.976 87.071 172.081 86.9325 172.231 86.8317C172.383 86.7294 172.555 86.6783 172.747 86.6783C172.787 86.6783 172.834 86.6797 172.888 86.6825C172.943 86.6854 172.986 86.6889 173.018 86.6932V87.3026C172.992 87.2955 172.947 87.2876 172.881 87.2791C172.816 87.2692 172.751 87.2642 172.685 87.2642C172.535 87.2642 172.4 87.2962 172.282 87.3601C172.166 87.4226 172.074 87.5099 172.006 87.6222C171.937 87.733 171.903 87.8594 171.903 88.0014V90H171.266ZM174.862 90.0661C174.54 90.0661 174.262 89.9972 174.029 89.8594C173.798 89.7202 173.619 89.5249 173.492 89.2734C173.367 89.0206 173.305 88.7244 173.305 88.3849C173.305 88.0497 173.367 87.7543 173.492 87.4986C173.619 87.2429 173.795 87.0433 174.021 86.8999C174.248 86.7564 174.513 86.6847 174.817 86.6847C175.002 86.6847 175.181 86.7152 175.354 86.7763C175.528 86.8374 175.683 86.9332 175.821 87.0639C175.959 87.1946 176.067 87.3643 176.147 87.5732C176.227 87.7805 176.266 88.0327 176.266 88.3295V88.5554H173.665V88.0781H175.642C175.642 87.9105 175.608 87.7621 175.54 87.6328C175.472 87.5021 175.376 87.3991 175.252 87.3239C175.13 87.2486 174.987 87.2109 174.822 87.2109C174.643 87.2109 174.487 87.255 174.353 87.343C174.221 87.4297 174.119 87.5433 174.046 87.6839C173.975 87.8232 173.94 87.9744 173.94 88.1378V88.5107C173.94 88.7294 173.978 88.9155 174.055 89.0689C174.133 89.2223 174.241 89.3395 174.381 89.4205C174.52 89.5 174.683 89.5398 174.869 89.5398C174.989 89.5398 175.099 89.5227 175.199 89.4886C175.298 89.4531 175.384 89.4006 175.457 89.331C175.529 89.2614 175.585 89.1754 175.623 89.0732L176.226 89.1818C176.178 89.3594 176.091 89.5149 175.966 89.6484C175.842 89.7805 175.687 89.8835 175.499 89.9574C175.313 90.0298 175.101 90.0661 174.862 90.0661ZM179.679 86.7273L178.492 90H177.811L176.622 86.7273H177.306L178.134 89.2457H178.169L178.995 86.7273H179.679ZM180.278 90V86.7273H180.915V90H180.278ZM180.6 86.2223C180.489 86.2223 180.394 86.1854 180.314 86.1115C180.236 86.0362 180.197 85.9467 180.197 85.843C180.197 85.7379 180.236 85.6484 180.314 85.5746C180.394 85.4993 180.489 85.4616 180.6 85.4616C180.71 85.4616 180.805 85.4993 180.883 85.5746C180.963 85.6484 181.002 85.7379 181.002 85.843C181.002 85.9467 180.963 86.0362 180.883 86.1115C180.805 86.1854 180.71 86.2223 180.6 86.2223ZM183.183 90.0661C182.86 90.0661 182.582 89.9972 182.349 89.8594C182.118 89.7202 181.939 89.5249 181.812 89.2734C181.688 89.0206 181.625 88.7244 181.625 88.3849C181.625 88.0497 181.688 87.7543 181.812 87.4986C181.939 87.2429 182.115 87.0433 182.341 86.8999C182.568 86.7564 182.834 86.6847 183.138 86.6847C183.322 86.6847 183.501 86.7152 183.675 86.7763C183.848 86.8374 184.004 86.9332 184.141 87.0639C184.279 87.1946 184.388 87.3643 184.467 87.5732C184.547 87.7805 184.587 88.0327 184.587 88.3295V88.5554H181.985V88.0781H183.962C183.962 87.9105 183.928 87.7621 183.86 87.6328C183.792 87.5021 183.696 87.3991 183.572 87.3239C183.45 87.2486 183.307 87.2109 183.142 87.2109C182.963 87.2109 182.807 87.255 182.673 87.343C182.541 87.4297 182.439 87.5433 182.366 87.6839C182.295 87.8232 182.26 87.9744 182.26 88.1378V88.5107C182.26 88.7294 182.298 88.9155 182.375 89.0689C182.453 89.2223 182.562 89.3395 182.701 89.4205C182.84 89.5 183.003 89.5398 183.189 89.5398C183.31 89.5398 183.42 89.5227 183.519 89.4886C183.619 89.4531 183.705 89.4006 183.777 89.331C183.849 89.2614 183.905 89.1754 183.943 89.0732L184.546 89.1818C184.498 89.3594 184.411 89.5149 184.286 89.6484C184.163 89.7805 184.007 89.8835 183.82 89.9574C183.634 90.0298 183.421 90.0661 183.183 90.0661ZM185.997 90L185.034 86.7273H185.692L186.334 89.1307H186.366L187.009 86.7273H187.668L188.307 89.12H188.339L188.976 86.7273H189.634L188.673 90H188.023L187.359 87.6371H187.31L186.645 90H185.997Z" fill="black"/>
<mask id="path-17-inside-2_20_1705" fill="white">
<path d="M36 102H304V162H36V102Z"/>
</mask>
<path d="M303.5 102V162H304.5V102H303.5Z" fill="#CDCDCD" mask="url(#path-17-inside-2_20_1705)"/>
<rect x="222.25" y="199.25" width="315.5" height="141.5" rx="5.75" stroke="#CDCDCD" stroke-width="0.5"/>
<circle cx="236" cy="212" r="4" fill="#5B5B5B"/>
<circle cx="249" cy="212" r="4" fill="#807F7F"/>
<circle cx="262" cy="212" r="4" fill="#CDCDCD"/>
<mask id="path-23-inside-3_20_1705" fill="white">
<path d="M232 241H494C497.314 241 500 243.686 500 247V270H232V241Z"/>
</mask>
<path d="M232 240.5H494C497.59 240.5 500.5 243.41 500.5 247H499.5C499.5 243.962 497.038 241.5 494 241.5H232V240.5ZM500.5 270.5H232V269.5H499.5L500.5 270.5ZM232 270V241V270ZM494 240.5C497.59 240.5 500.5 243.41 500.5 247V270.5L499.5 269.5V247C499.5 243.962 497.038 241.5 494 241.5V240.5Z" fill="#CDCDCD" mask="url(#path-23-inside-3_20_1705)"/>
<rect x="444" y="247" width="45" height="16" rx="3" fill="black"/>
<path d="M462.859 253.783C462.837 253.581 462.743 253.425 462.578 253.314C462.413 253.202 462.206 253.146 461.956 253.146C461.777 253.146 461.622 253.174 461.491 253.231C461.361 253.286 461.259 253.363 461.187 253.461C461.116 253.558 461.08 253.668 461.08 253.791C461.08 253.895 461.104 253.984 461.153 254.06C461.202 254.135 461.267 254.198 461.347 254.249C461.428 254.299 461.514 254.341 461.607 254.375C461.699 254.408 461.788 254.435 461.873 254.456L462.299 254.567C462.438 254.601 462.581 254.647 462.727 254.705C462.874 254.763 463.009 254.84 463.134 254.935C463.259 255.031 463.36 255.148 463.437 255.289C463.515 255.43 463.554 255.598 463.554 255.794C463.554 256.041 463.49 256.261 463.362 256.452C463.236 256.644 463.052 256.795 462.81 256.906C462.57 257.017 462.28 257.072 461.939 257.072C461.612 257.072 461.33 257.021 461.091 256.917C460.852 256.813 460.665 256.666 460.531 256.476C460.396 256.284 460.321 256.057 460.307 255.794H460.967C460.98 255.952 461.031 256.083 461.121 256.188C461.212 256.292 461.327 256.369 461.468 256.42C461.61 256.47 461.766 256.495 461.935 256.495C462.121 256.495 462.286 256.466 462.431 256.408C462.577 256.348 462.692 256.266 462.776 256.161C462.86 256.054 462.902 255.93 462.902 255.788C462.902 255.658 462.865 255.553 462.791 255.47C462.719 255.388 462.62 255.32 462.495 255.266C462.371 255.212 462.232 255.164 462.075 255.123L461.56 254.982C461.21 254.887 460.933 254.747 460.729 254.562C460.526 254.378 460.424 254.134 460.424 253.83C460.424 253.578 460.492 253.359 460.629 253.171C460.765 252.984 460.95 252.838 461.183 252.734C461.415 252.629 461.678 252.577 461.971 252.577C462.266 252.577 462.527 252.629 462.753 252.732C462.98 252.836 463.159 252.979 463.29 253.161C463.42 253.341 463.489 253.548 463.494 253.783H462.859ZM464.927 255.057V257H464.29V252.636H464.918V254.26H464.959C465.035 254.084 465.153 253.944 465.31 253.84C465.468 253.737 465.674 253.685 465.928 253.685C466.153 253.685 466.349 253.731 466.516 253.823C466.685 253.915 466.816 254.053 466.908 254.237C467.002 254.418 467.049 254.646 467.049 254.918V257H466.412V254.995C466.412 254.755 466.35 254.569 466.226 254.437C466.103 254.303 465.931 254.237 465.711 254.237C465.56 254.237 465.425 254.268 465.306 254.332C465.188 254.396 465.095 254.49 465.027 254.614C464.96 254.736 464.927 254.884 464.927 255.057ZM468.851 257.072C468.644 257.072 468.456 257.034 468.289 256.957C468.121 256.879 467.988 256.766 467.89 256.619C467.794 256.471 467.746 256.29 467.746 256.075C467.746 255.891 467.781 255.739 467.852 255.619C467.923 255.5 468.019 255.406 468.14 255.336C468.26 255.266 468.395 255.214 468.545 255.178C468.694 255.143 468.846 255.116 469.001 255.097C469.197 255.075 469.356 255.056 469.478 255.042C469.6 255.026 469.689 255.001 469.744 254.967C469.8 254.933 469.827 254.878 469.827 254.801V254.786C469.827 254.6 469.775 254.456 469.67 254.354C469.566 254.251 469.411 254.2 469.205 254.2C468.991 254.2 468.822 254.248 468.698 254.343C468.576 254.437 468.491 254.541 468.444 254.656L467.846 254.52C467.917 254.321 468.02 254.161 468.157 254.038C468.295 253.915 468.453 253.825 468.632 253.77C468.811 253.713 468.999 253.685 469.197 253.685C469.327 253.685 469.466 253.7 469.612 253.732C469.76 253.761 469.898 253.817 470.025 253.898C470.155 253.979 470.26 254.094 470.343 254.245C470.425 254.394 470.466 254.588 470.466 254.827V257H469.844V256.553H469.819C469.778 256.635 469.716 256.716 469.633 256.795C469.551 256.875 469.445 256.941 469.316 256.994C469.187 257.046 469.032 257.072 468.851 257.072ZM468.99 256.561C469.166 256.561 469.317 256.526 469.442 256.457C469.568 256.387 469.664 256.296 469.729 256.184C469.796 256.07 469.829 255.949 469.829 255.82V255.398C469.807 255.42 469.763 255.442 469.697 255.462C469.633 255.48 469.56 255.496 469.478 255.511C469.395 255.523 469.315 255.536 469.237 255.547C469.159 255.557 469.094 255.565 469.041 255.572C468.917 255.588 468.805 255.614 468.702 255.651C468.601 255.688 468.52 255.741 468.459 255.811C468.4 255.879 468.37 255.97 468.37 256.084C468.37 256.241 468.428 256.361 468.545 256.442C468.661 256.521 468.809 256.561 468.99 256.561ZM471.315 257V253.727H471.931V254.247H471.965C472.025 254.071 472.13 253.933 472.28 253.832C472.432 253.729 472.604 253.678 472.796 253.678C472.836 253.678 472.882 253.68 472.936 253.683C472.992 253.685 473.035 253.689 473.066 253.693V254.303C473.041 254.295 472.995 254.288 472.93 254.279C472.865 254.269 472.799 254.264 472.734 254.264C472.583 254.264 472.449 254.296 472.331 254.36C472.215 254.423 472.123 254.51 472.054 254.622C471.986 254.733 471.952 254.859 471.952 255.001V257H471.315ZM474.911 257.066C474.589 257.066 474.311 256.997 474.078 256.859C473.846 256.72 473.667 256.525 473.541 256.273C473.416 256.021 473.354 255.724 473.354 255.385C473.354 255.05 473.416 254.754 473.541 254.499C473.667 254.243 473.844 254.043 474.069 253.9C474.297 253.756 474.562 253.685 474.866 253.685C475.051 253.685 475.23 253.715 475.403 253.776C475.577 253.837 475.732 253.933 475.87 254.064C476.008 254.195 476.116 254.364 476.196 254.573C476.275 254.781 476.315 255.033 476.315 255.33V255.555H473.714V255.078H475.691C475.691 254.911 475.657 254.762 475.589 254.633C475.52 254.502 475.425 254.399 475.301 254.324C475.179 254.249 475.035 254.211 474.871 254.211C474.692 254.211 474.535 254.255 474.402 254.343C474.27 254.43 474.167 254.543 474.095 254.684C474.024 254.823 473.988 254.974 473.988 255.138V255.511C473.988 255.729 474.027 255.915 474.104 256.069C474.182 256.222 474.29 256.339 474.43 256.42C474.569 256.5 474.731 256.54 474.917 256.54C475.038 256.54 475.148 256.523 475.248 256.489C475.347 256.453 475.433 256.401 475.506 256.331C475.578 256.261 475.633 256.175 475.672 256.073L476.275 256.182C476.226 256.359 476.14 256.515 476.015 256.648C475.891 256.781 475.736 256.884 475.548 256.957C475.362 257.03 475.15 257.066 474.911 257.066Z" fill="white"/>
<mask id="path-27-inside-4_20_1705" fill="white">
<path d="M232 269H500V329H232V269Z"/>
</mask>
<path d="M499.5 269V329H500.5V269H499.5Z" fill="#CDCDCD" mask="url(#path-27-inside-4_20_1705)"/>
<path d="M453.667 256.333V253.617L452.8 254.483L452.333 254L454 252.333L455.667 254L455.2 254.483L454.333 253.617V256.333H453.667ZM452 257.667C451.817 257.667 451.66 257.601 451.529 257.471C451.399 257.34 451.333 257.183 451.333 257V256H452V257H456V256H456.667V257C456.667 257.183 456.601 257.34 456.471 257.471C456.34 257.602 456.183 257.667 456 257.667H452Z" fill="white"/>
<path d="M363.112 95.8906C401.994 89.4552 468.774 72.2612 480.905 126.239C483.877 139.462 479.065 150.253 474.59 162.439C474.397 162.965 467.966 174.436 467.383 172.696C465.825 168.036 456.218 140.721 462.277 158.491C462.918 160.371 465.115 173.87 467.071 174.588C472.399 176.545 492.684 161.754 498.134 159.232" stroke="#1C1C1C" stroke-linecap="round"/>
<defs>
<clipPath id="clip0_20_1705">
<rect width="6" height="6" fill="white" transform="translate(255 85)"/>
</clipPath>
<clipPath id="clip1_20_1705">
<rect width="6" height="6" fill="white" transform="translate(211 85)"/>
</clipPath>
</defs>
</svg>
