<svg width="569" height="364" viewBox="0 0 569 364" fill="none" xmlns="http://www.w3.org/2000/svg">
<rect x="26.25" y="32.25" width="315.5" height="141.5" rx="5.75" fill="#0C0C0C" stroke="#303030" stroke-width="0.5"/>
<circle cx="40" cy="45" r="4" fill="#5B5B5B"/>
<circle cx="53" cy="45" r="4" fill="#5B5B5B"/>
<circle cx="66" cy="45" r="4" fill="#5B5B5B"/>
<rect x="222.25" y="199.25" width="315.5" height="141.5" rx="5.75" fill="#0C0C0C" stroke="#303030" stroke-width="0.5"/>
<circle cx="236" cy="212" r="4" fill="#5B5B5B"/>
<circle cx="249" cy="212" r="4" fill="#5B5B5B"/>
<circle cx="262" cy="212" r="4" fill="#5B5B5B"/>
<path d="M363.112 95.8906C401.994 89.4552 468.774 72.2612 480.905 126.239C483.877 139.462 479.065 150.253 474.59 162.439C474.397 162.965 467.966 174.436 467.383 172.696C465.825 168.036 456.218 140.721 462.277 158.491C462.918 160.371 465.115 173.87 467.071 174.588C472.399 176.545 492.684 161.754 498.134 159.232" stroke="white" stroke-linecap="round"/>
<rect x="426" y="257" width="76" height="28" rx="5" fill="white"/>
<path d="M462.67 269.451C462.637 269.141 462.497 268.899 462.251 268.726C462.007 268.553 461.69 268.467 461.299 268.467C461.024 268.467 460.789 268.508 460.592 268.591C460.396 268.674 460.246 268.787 460.141 268.929C460.037 269.071 459.984 269.233 459.982 269.415C459.982 269.567 460.016 269.698 460.085 269.809C460.156 269.921 460.251 270.015 460.372 270.093C460.493 270.169 460.627 270.233 460.773 270.285C460.92 270.337 461.068 270.381 461.217 270.417L461.899 270.587C462.174 270.651 462.438 270.737 462.691 270.846C462.947 270.955 463.175 271.092 463.376 271.258C463.58 271.424 463.741 271.624 463.859 271.858C463.978 272.093 464.037 272.367 464.037 272.682C464.037 273.108 463.928 273.484 463.71 273.808C463.492 274.13 463.178 274.382 462.766 274.564C462.356 274.744 461.86 274.834 461.278 274.834C460.712 274.834 460.221 274.747 459.804 274.571C459.39 274.396 459.065 274.141 458.831 273.804C458.599 273.468 458.473 273.059 458.455 272.576H459.751C459.77 272.829 459.848 273.04 459.985 273.208C460.122 273.376 460.301 273.501 460.521 273.584C460.744 273.667 460.992 273.708 461.267 273.708C461.554 273.708 461.804 273.666 462.02 273.581C462.238 273.493 462.408 273.372 462.531 273.218C462.654 273.062 462.717 272.88 462.719 272.672C462.717 272.482 462.661 272.326 462.553 272.203C462.444 272.077 462.291 271.973 462.094 271.89C461.9 271.805 461.673 271.729 461.413 271.663L460.585 271.45C459.986 271.296 459.513 271.063 459.165 270.75C458.819 270.436 458.646 270.018 458.646 269.497C458.646 269.068 458.762 268.693 458.994 268.371C459.229 268.049 459.547 267.799 459.95 267.622C460.352 267.442 460.808 267.352 461.317 267.352C461.833 267.352 462.285 267.442 462.673 267.622C463.064 267.799 463.371 268.047 463.593 268.364C463.816 268.679 463.93 269.041 463.938 269.451H462.67ZM466.44 271.528V274.724H465.155V267.451H466.412V270.196H466.476C466.604 269.889 466.801 269.646 467.069 269.468C467.339 269.289 467.682 269.199 468.099 269.199C468.477 269.199 468.808 269.278 469.089 269.436C469.371 269.595 469.589 269.827 469.743 270.133C469.899 270.438 469.977 270.811 469.977 271.251V274.724H468.692V271.45C468.692 271.083 468.597 270.798 468.407 270.594C468.22 270.388 467.958 270.285 467.619 270.285C467.392 270.285 467.188 270.335 467.008 270.434C466.831 270.531 466.691 270.672 466.589 270.857C466.49 271.042 466.44 271.265 466.44 271.528ZM472.857 274.834C472.511 274.834 472.2 274.773 471.923 274.65C471.648 274.524 471.431 274.339 471.27 274.096C471.111 273.852 471.032 273.551 471.032 273.194C471.032 272.886 471.089 272.631 471.202 272.43C471.316 272.229 471.471 272.068 471.667 271.947C471.864 271.826 472.085 271.735 472.331 271.674C472.58 271.61 472.837 271.564 473.102 271.535C473.422 271.502 473.681 271.472 473.88 271.446C474.079 271.418 474.223 271.375 474.313 271.319C474.405 271.259 474.452 271.168 474.452 271.045V271.024C474.452 270.756 474.372 270.549 474.214 270.402C474.055 270.256 473.827 270.182 473.528 270.182C473.213 270.182 472.964 270.251 472.779 270.388C472.597 270.525 472.474 270.688 472.41 270.875L471.209 270.704C471.304 270.373 471.46 270.096 471.678 269.873C471.896 269.648 472.162 269.48 472.477 269.369C472.792 269.255 473.14 269.199 473.521 269.199C473.784 269.199 474.046 269.229 474.306 269.291C474.566 269.352 474.804 269.454 475.02 269.596C475.235 269.736 475.408 269.927 475.538 270.168C475.671 270.409 475.737 270.711 475.737 271.074V274.724H474.501V273.975H474.459C474.381 274.126 474.27 274.268 474.128 274.401C473.989 274.531 473.812 274.637 473.599 274.717C473.389 274.795 473.141 274.834 472.857 274.834ZM473.191 273.89C473.449 273.89 473.673 273.839 473.862 273.737C474.051 273.633 474.197 273.495 474.299 273.325C474.403 273.155 474.455 272.969 474.455 272.767V272.125C474.415 272.158 474.346 272.189 474.249 272.217C474.154 272.245 474.048 272.27 473.93 272.292C473.811 272.313 473.694 272.332 473.578 272.348C473.462 272.365 473.361 272.379 473.276 272.391C473.084 272.417 472.913 272.46 472.761 272.519C472.61 272.578 472.49 272.661 472.403 272.767C472.315 272.872 472.271 273.007 472.271 273.172C472.271 273.409 472.358 273.588 472.53 273.708C472.703 273.829 472.923 273.89 473.191 273.89ZM477.03 274.724V269.27H478.276V270.179H478.333C478.432 269.864 478.603 269.621 478.844 269.451C479.088 269.278 479.366 269.191 479.679 269.191C479.75 269.191 479.829 269.195 479.917 269.202C480.007 269.207 480.081 269.215 480.14 269.227V270.409C480.086 270.391 480 270.374 479.881 270.36C479.765 270.343 479.653 270.335 479.544 270.335C479.309 270.335 479.099 270.386 478.912 270.488C478.727 270.587 478.581 270.726 478.475 270.903C478.368 271.081 478.315 271.285 478.315 271.517V274.724H477.03ZM483.185 274.831C482.638 274.831 482.165 274.717 481.768 274.49C481.372 274.26 481.068 273.936 480.855 273.517C480.642 273.095 480.536 272.599 480.536 272.029C480.536 271.468 480.642 270.975 480.855 270.552C481.071 270.125 481.371 269.794 481.757 269.557C482.143 269.318 482.596 269.199 483.117 269.199C483.453 269.199 483.771 269.253 484.069 269.362C484.37 269.468 484.635 269.634 484.864 269.859C485.096 270.084 485.279 270.37 485.411 270.718C485.544 271.064 485.61 271.476 485.61 271.954V272.348H481.139V271.482H484.378C484.375 271.236 484.322 271.017 484.218 270.825C484.114 270.631 483.968 270.478 483.781 270.367C483.597 270.256 483.381 270.2 483.135 270.2C482.872 270.2 482.641 270.264 482.442 270.392C482.244 270.517 482.089 270.683 481.977 270.889C481.868 271.092 481.813 271.316 481.81 271.56V272.316C481.81 272.634 481.868 272.906 481.984 273.133C482.1 273.358 482.263 273.531 482.471 273.652C482.679 273.77 482.923 273.829 483.202 273.829C483.389 273.829 483.559 273.803 483.71 273.751C483.862 273.697 483.993 273.617 484.104 273.513C484.216 273.409 484.3 273.28 484.357 273.126L485.557 273.261C485.481 273.578 485.337 273.855 485.124 274.092C484.913 274.326 484.643 274.509 484.314 274.639C483.985 274.767 483.608 274.831 483.185 274.831Z" fill="#202020"/>
<path d="M447.417 272.77V268.18L445.9 269.644L445.083 268.828L448 266.011L450.917 268.828L450.1 269.644L448.583 268.18V272.77H447.417ZM444.5 275.023C444.179 275.023 443.905 274.913 443.676 274.692C443.448 274.472 443.334 274.207 443.333 273.897V272.207H444.5V273.897H451.5V272.207H452.667V273.897C452.667 274.206 452.552 274.472 452.324 274.692C452.096 274.913 451.821 275.023 451.5 275.023H444.5Z" fill="#202020"/>
<rect x="232" y="89" width="76" height="28" rx="5" fill="white"/>
<path d="M260.717 106.724V99.4514H263.445C264.003 99.4514 264.472 99.5556 264.851 99.7639C265.232 99.9722 265.52 100.259 265.714 100.623C265.91 100.985 266.009 101.397 266.009 101.859C266.009 102.325 265.91 102.74 265.714 103.102C265.517 103.464 265.227 103.749 264.844 103.958C264.46 104.164 263.988 104.267 263.427 104.267H261.619V103.184H263.249C263.576 103.184 263.844 103.127 264.052 103.013C264.26 102.9 264.414 102.743 264.513 102.544C264.615 102.346 264.666 102.117 264.666 101.859C264.666 101.601 264.615 101.374 264.513 101.177C264.414 100.981 264.259 100.828 264.048 100.719C263.84 100.608 263.571 100.552 263.242 100.552H262.035V106.724H260.717ZM270.573 104.43V101.27H271.858V106.724H270.612V105.755H270.555C270.432 106.06 270.229 106.31 269.948 106.504C269.668 106.698 269.324 106.795 268.914 106.795C268.557 106.795 268.241 106.716 267.966 106.557C267.694 106.396 267.481 106.163 267.327 105.858C267.173 105.55 267.096 105.178 267.096 104.743V101.27H268.382V104.544C268.382 104.889 268.476 105.164 268.666 105.368C268.855 105.571 269.104 105.673 269.411 105.673C269.601 105.673 269.784 105.627 269.962 105.534C270.139 105.442 270.285 105.305 270.399 105.123C270.515 104.938 270.573 104.707 270.573 104.43ZM273.237 106.724V99.4514H274.522V102.172H274.576C274.642 102.039 274.735 101.898 274.856 101.749C274.977 101.597 275.14 101.468 275.346 101.362C275.552 101.253 275.815 101.199 276.135 101.199C276.556 101.199 276.936 101.306 277.275 101.522C277.615 101.735 277.885 102.051 278.084 102.47C278.285 102.887 278.386 103.398 278.386 104.004C278.386 104.603 278.288 105.112 278.091 105.531C277.895 105.95 277.627 106.27 277.289 106.49C276.95 106.71 276.567 106.82 276.138 106.82C275.826 106.82 275.566 106.768 275.36 106.664C275.154 106.56 274.989 106.434 274.863 106.287C274.74 106.138 274.644 105.997 274.576 105.865H274.501V106.724H273.237ZM274.498 103.997C274.498 104.35 274.547 104.659 274.647 104.924C274.748 105.189 274.894 105.396 275.083 105.545C275.275 105.692 275.507 105.765 275.779 105.765C276.064 105.765 276.301 105.69 276.493 105.538C276.685 105.384 276.829 105.175 276.926 104.909C277.026 104.642 277.076 104.338 277.076 103.997C277.076 103.658 277.027 103.358 276.93 103.095C276.833 102.832 276.689 102.626 276.497 102.477C276.305 102.328 276.066 102.253 275.779 102.253C275.505 102.253 275.272 102.325 275.08 102.47C274.888 102.614 274.743 102.817 274.643 103.077C274.546 103.338 274.498 103.644 274.498 103.997ZM280.764 99.4514V106.724H279.479V99.4514H280.764ZM282.086 106.724V101.27H283.372V106.724H282.086ZM282.733 100.495C282.529 100.495 282.354 100.428 282.207 100.293C282.06 100.156 281.987 99.9912 281.987 99.7994C281.987 99.6053 282.06 99.4407 282.207 99.3058C282.354 99.1685 282.529 99.0998 282.733 99.0998C282.939 99.0998 283.114 99.1685 283.258 99.3058C283.405 99.4407 283.478 99.6053 283.478 99.7994C283.478 99.9912 283.405 100.156 283.258 100.293C283.114 100.428 282.939 100.495 282.733 100.495ZM289.005 102.711L287.833 102.839C287.8 102.721 287.742 102.61 287.659 102.505C287.578 102.401 287.47 102.317 287.332 102.253C287.195 102.189 287.027 102.157 286.828 102.157C286.56 102.157 286.336 102.215 286.153 102.331C285.973 102.447 285.885 102.598 285.887 102.782C285.885 102.941 285.943 103.07 286.061 103.169C286.182 103.269 286.381 103.351 286.657 103.414L287.588 103.613C288.104 103.725 288.488 103.901 288.738 104.142C288.992 104.384 289.12 104.7 289.122 105.091C289.12 105.434 289.019 105.737 288.82 106C288.624 106.26 288.35 106.464 288 106.61C287.649 106.757 287.247 106.831 286.792 106.831C286.125 106.831 285.587 106.691 285.18 106.412C284.773 106.13 284.53 105.738 284.452 105.236L285.706 105.115C285.763 105.362 285.883 105.548 286.068 105.673C286.253 105.798 286.493 105.861 286.789 105.861C287.094 105.861 287.339 105.798 287.524 105.673C287.711 105.548 287.805 105.392 287.805 105.208C287.805 105.052 287.744 104.923 287.623 104.821C287.505 104.719 287.32 104.641 287.069 104.586L286.139 104.391C285.616 104.282 285.229 104.099 284.978 103.841C284.727 103.58 284.603 103.251 284.605 102.853C284.603 102.517 284.694 102.226 284.878 101.98C285.065 101.731 285.325 101.539 285.656 101.405C285.99 101.267 286.375 101.199 286.81 101.199C287.449 101.199 287.952 101.335 288.319 101.607C288.689 101.879 288.917 102.247 289.005 102.711ZM291.468 103.528V106.724H290.182V99.4514H291.439V102.196H291.503C291.631 101.889 291.829 101.646 292.096 101.468C292.366 101.289 292.709 101.199 293.126 101.199C293.505 101.199 293.835 101.278 294.117 101.436C294.398 101.595 294.616 101.827 294.77 102.133C294.926 102.438 295.004 102.811 295.004 103.251V106.724H293.719V103.45C293.719 103.083 293.624 102.798 293.435 102.594C293.248 102.388 292.985 102.285 292.646 102.285C292.419 102.285 292.216 102.335 292.036 102.434C291.858 102.531 291.718 102.672 291.617 102.857C291.517 103.042 291.468 103.265 291.468 103.528Z" fill="#202020"/>
<g clip-path="url(#clip0_25_251)">
<path d="M254.891 97.7951C254.943 97.8453 254.978 97.9091 254.993 97.9786C255.007 98.0481 255.001 98.1203 254.973 98.1861L250.609 108.72C250.57 108.813 250.506 108.894 250.423 108.953C250.34 109.013 250.242 109.05 250.139 109.059C250.036 109.068 249.932 109.05 249.839 109.006C249.746 108.962 249.668 108.894 249.612 108.81L247.229 105.193L243.482 102.892C243.395 102.838 243.324 102.762 243.279 102.672C243.233 102.582 243.214 102.482 243.224 102.383C243.233 102.283 243.271 102.188 243.333 102.108C243.395 102.028 243.479 101.966 243.575 101.928L254.486 97.7161C254.554 97.6896 254.629 97.6831 254.701 97.6972C254.773 97.7114 254.839 97.7457 254.891 97.7958V97.7951ZM247.977 104.981L250.048 108.123L253.598 99.5547L247.977 104.981ZM253.067 99.0428L244.193 102.47L247.448 104.469L253.067 99.0428Z" fill="#202020"/>
</g>
<defs>
<clipPath id="clip0_25_251">
<rect width="12" height="11.5862" fill="white" transform="translate(243 97.6895)"/>
</clipPath>
</defs>
</svg>
